<?xml version="1.0" encoding="utf-8"?>
<!-- Generator: Adobe Illustrator 16.0.0, SVG Export Plug-In . SVG Version: 6.00 Build 0)  -->
<!DOCTYPE svg PUBLIC "-//W3C//DTD SVG 1.1//EN" "http://www.w3.org/Graphics/SVG/1.1/DTD/svg11.dtd">
<svg version="1.1" id="Calque_1" xmlns="http://www.w3.org/2000/svg" xmlns:xlink="http://www.w3.org/1999/xlink" x="0px" y="0px"
	 width="200px" height="200px" viewBox="0 0 200 200" enable-background="new 0 0 200 200" xml:space="preserve">
<g id="dollars">
	<path fill="#E0E0E0" d="M54.8,18.096l0.172,0.288c0.19,0.322,0.467,0.583,0.8,0.752l0.3,0.148l-0.288,0.172
		c-0.32,0.19-0.58,0.468-0.748,0.8l-0.152,0.304l-0.172-0.288c-0.19-0.321-0.467-0.582-0.8-0.752l-0.3-0.148l0.288-0.176
		c0.322-0.189,0.583-0.467,0.752-0.8L54.8,18.096z"/>
	<path fill="#E0E0E0" d="M97.232,40.196l0.172,0.288c0.19,0.321,0.468,0.582,0.8,0.752l0.3,0.148l-0.288,0.172
		c-0.32,0.191-0.581,0.468-0.752,0.8l-0.148,0.3l-0.172-0.284c-0.19-0.321-0.468-0.582-0.8-0.752l-0.3-0.148l0.288-0.176
		c0.321-0.188,0.581-0.466,0.748-0.8L97.232,40.196z"/>
	<path fill="#E0E0E0" d="M24.252,101.6l0.172,0.289c0.191,0.32,0.469,0.58,0.8,0.752l0.304,0.147l-0.288,0.172
		c-0.321,0.19-0.581,0.468-0.752,0.8l-0.148,0.305l-0.176-0.289c-0.19-0.319-0.467-0.582-0.8-0.752l-0.304-0.146l0.288-0.176
		c0.321-0.19,0.583-0.469,0.752-0.801L24.252,101.6z"/>
	<path fill="#E0E0E0" d="M138.664,178.904l0.176,0.287c0.189,0.322,0.467,0.582,0.801,0.752l0.303,0.147l-0.286,0.177
		c-0.322,0.189-0.582,0.467-0.753,0.801l-0.147,0.304l-0.172-0.288c-0.19-0.32-0.469-0.581-0.8-0.752l-0.301-0.148l0.287-0.176
		c0.319-0.191,0.578-0.469,0.748-0.8L138.664,178.904z"/>
	<path fill="#E0E0E0" d="M171.236,93.156l0.399,0.628c0.425,0.706,1.041,1.276,1.779,1.644l0.66,0.324l-0.628,0.4
		c-0.706,0.425-1.276,1.042-1.645,1.78l-0.324,0.66l-0.381-0.628c-0.424-0.707-1.041-1.278-1.779-1.644l-0.659-0.324l0.632-0.38
		c0.705-0.425,1.273-1.043,1.641-1.78L171.236,93.156z"/>
	<path fill="#E0E0E0" d="M135.016,12.8l0.381,0.632c0.424,0.706,1.041,1.275,1.779,1.64l0.66,0.324l-0.632,0.4
		c-0.705,0.425-1.274,1.042-1.64,1.78l-0.324,0.66l-0.4-0.628c-0.425-0.708-1.044-1.278-1.783-1.644L132.42,15.6l0.628-0.38
		c0.708-0.424,1.278-1.042,1.644-1.78L135.016,12.8z"/>
	<path fill="#E0E0E0" d="M57.464,169.336l0.376,0.632c0.425,0.706,1.045,1.276,1.784,1.64l0.656,0.324l-0.628,0.381
		c-0.707,0.424-1.276,1.043-1.64,1.783l-0.328,0.656l-0.376-0.628c-0.425-0.706-1.044-1.276-1.784-1.64l-0.656-0.328l0.628-0.377
		c0.705-0.426,1.274-1.045,1.64-1.783L57.464,169.336z"/>
	<path fill="#EBEBEB" d="M160.456,65.976c0,0-3.228,1.6-7.448,4.092c-5.145,3.056-15.732,9.06-22.5,4.316l-6.195-12.164
		c0,0,3.977,1.824,10.027,1.036c5.4-0.7,9.721-3.544,11.664-4.852c0.801-0.532,1.824-1.248,2.637-1.736
		c1.359-0.8,2.991-2,5.367-3.168L160.456,65.976z"/>
	
		<ellipse transform="matrix(-0.985 0.1726 -0.1726 -0.985 295.938 110.4679)" fill="#F5F5F5" cx="143.167" cy="68.098" rx="4.964" ry="4.712"/>
	<path fill="#EBEBEB" d="M141.548,66.18l-0.399-0.616l0.492-0.32l0.399,0.604c0.455-0.269,0.981-0.39,1.508-0.348l0.164,0.848
		c-0.413-0.042-0.829,0.036-1.2,0.224l0.596,0.92c0.642-0.204,1.381-0.4,1.89,0.4c0.38,0.584,0.323,1.332-0.399,1.932l0.399,0.612
		l-0.492,0.316l-0.399-0.6c-0.367,0.204-0.779,0.309-1.199,0.304l-0.192-0.836c0.323,0.004,0.644-0.064,0.937-0.2l-0.604-0.936
		c-0.636,0.208-1.367,0.4-1.867-0.4C140.8,67.52,140.844,66.8,141.548,66.18z M141.908,67.516c0.124,0.196,0.332,0.208,0.6,0.152
		l-0.492-0.76C141.83,67.054,141.784,67.315,141.908,67.516z M143.607,68.316l0.504,0.8c0.191-0.156,0.236-0.431,0.104-0.64
		c-0.124-0.228-0.34-0.236-0.615-0.176L143.607,68.316z"/>
	<path fill="#F5F5F5" d="M131.2,74.448l0.079,0.048c0.201,0.12,5.029,2.868,13.637-1.048c3.216-1.465,6.309-3.19,9.244-5.156
		c1.863-1.2,3.199-2.084,4.688-2.476l0.4-0.104l-5.572-11.448l-0.316,0.224c-0.092,0.064-9.176,6.38-13.223,8.036
		c-3.201,1.316-9.293,3.2-13.877,1.1l-0.88-0.4L131.2,74.448z M140.376,63.14c2.924-1.2,8.24-4.652,11.2-6.648
		c0.273,0.423,0.691,0.734,1.176,0.876c0.537,0.149,1.111,0.083,1.6-0.184l3.053,6.268c-0.496,0.206-0.87,0.629-1.012,1.148
		c-0.125,0.494-0.098,1.014,0.08,1.492c-0.801,0.44-1.668,0.992-2.673,1.644c-2.905,1.952-5.969,3.66-9.155,5.108
		c-4.324,1.968-7.637,2.156-9.651,1.968c-0.527-0.048-1.05-0.132-1.563-0.252c-0.313-1.205-1.339-2.091-2.576-2.224l-3.252-6.264
		c0.332-0.028,0.769-0.229,0.853-1.068c4.296,0.812,9.147-0.732,11.903-1.864H140.376z"/>
	<path fill="#EBEBEB" d="M50.7,24.552c0,0-3.228,1.6-7.448,4.092c-5.144,3.052-15.732,9.06-22.5,4.316L14.556,20.8
		c0,0,3.976,1.82,10.028,1.036c5.4-0.7,9.72-3.544,11.664-4.856c0.8-0.528,1.824-1.248,2.636-1.736c1.36-0.8,2.992-2,5.368-3.164
		L50.7,24.552z"/>
	
		<ellipse transform="matrix(-0.985 0.1726 -0.1726 -0.985 70.9147 47.1627)" fill="#F5F5F5" cx="33.406" cy="26.665" rx="4.964" ry="4.712"/>
	<path fill="#EBEBEB" d="M31.792,24.756l-0.4-0.62l0.492-0.316l0.4,0.604c0.454-0.27,0.981-0.392,1.508-0.348l0.164,0.848
		c-0.413-0.041-0.829,0.036-1.2,0.22l0.596,0.924c0.64-0.204,1.38-0.4,1.888,0.4c0.417,0.644,0.239,1.504-0.4,1.928l0.4,0.612
		l-0.492,0.32l-0.4-0.604c-0.367,0.205-0.78,0.311-1.2,0.308l-0.192-0.836c0.323,0.002,0.642-0.066,0.936-0.2l-0.604-0.936
		c-0.636,0.208-1.368,0.4-1.868-0.4C31.032,26.096,31.088,25.356,31.792,24.756z M32.152,26.092c0.124,0.192,0.332,0.208,0.6,0.152
		l-0.492-0.76C32.075,25.63,32.028,25.891,32.152,26.092z M33.852,26.892l0.504,0.8c0.191-0.158,0.235-0.434,0.104-0.644
		c-0.124-0.224-0.34-0.248-0.608-0.172V26.892z"/>
	<path fill="#F5F5F5" d="M21.424,33.024l0.08,0.048c0.2,0.12,5.028,2.868,13.636-1.048c3.221-1.466,6.317-3.19,9.26-5.156
		c1.864-1.2,3.2-2.084,4.688-2.476l0.4-0.104l-5.6-11.448l-0.316,0.224C43.48,13.128,34.4,19.44,30.348,21.1
		c-3.2,1.316-9.292,3.2-13.876,1.1l-0.88-0.4L21.424,33.024z M30.6,21.716c2.924-1.2,8.24-4.652,11.2-6.648
		c0.593,0.924,1.802,1.228,2.76,0.692l3.052,6.268c-0.497,0.205-0.871,0.629-1.012,1.148c-0.126,0.493-0.098,1.012,0.08,1.488
		c-0.8,0.444-1.668,0.996-2.672,1.648c-2.902,1.951-5.961,3.659-9.144,5.108c-4.324,1.968-7.636,2.156-9.664,1.964
		c-0.526-0.047-1.049-0.129-1.564-0.248c-0.311-1.207-1.337-2.094-2.576-2.228l-3.24-6.264c0.332-0.024,0.768-0.224,0.852-1.068
		C22.992,24.4,27.832,22.848,30.6,21.716z"/>
	<path fill="#EBEBEB" d="M165.548,162.46c0,0-3.228,1.601-7.448,4.092c-5.14,3.048-15.73,9.048-22.5,4.316l-6.195-12.164
		c0,0,3.977,1.823,10.027,1.04c5.4-0.704,9.721-3.549,11.664-4.855c0.801-0.533,1.824-1.248,2.637-1.736
		c1.359-0.801,2.992-2,5.367-3.168L165.548,162.46z"/>
	<path fill="#F5F5F5" d="M143.363,165.436c-0.447-2.563,1.377-5.022,4.076-5.5c2.701-0.476,5.252,1.226,5.701,3.789
		c0.446,2.563-1.377,5.023-4.076,5.496C146.363,169.691,143.813,168,143.363,165.436z"/>
	<path fill="#EBEBEB" d="M146.641,162.664l-0.399-0.616l0.491-0.315l0.399,0.601c0.455-0.269,0.981-0.39,1.509-0.349l0.164,0.849
		c-0.414-0.039-0.83,0.039-1.201,0.226l0.598,0.92c0.64-0.205,1.384-0.4,1.892,0.398c0.376,0.588,0.32,1.332-0.399,1.934l0.399,0.61
		l-0.491,0.315l-0.399-0.601c-0.367,0.203-0.78,0.308-1.2,0.304l-0.191-0.836c0.322,0.006,0.643-0.063,0.937-0.194l-0.604-0.94
		c-0.637,0.208-1.369,0.4-1.869-0.398C145.88,164,145.936,163.268,146.641,162.664z M147,164.004c0.124,0.191,0.336,0.204,0.6,0.152
		l-0.492-0.764c-0.18,0.147-0.226,0.405-0.106,0.606L147,164.004L147,164.004z M148.7,164.805l0.508,0.779
		c0.188-0.158,0.231-0.432,0.101-0.641c-0.107-0.207-0.341-0.219-0.607-0.145L148.7,164.805L148.7,164.805z"/>
	<path fill="#F5F5F5" d="M136.271,170.932l0.08,0.049c0.205,0.119,5.027,2.867,13.637-1.045c3.216-1.467,6.307-3.191,9.244-5.16
		c1.863-1.198,3.199-2.084,4.688-2.476l0.4-0.104l-5.572-11.442l-0.32,0.222c-0.092,0.063-9.172,6.379-13.224,8.034
		c-3.2,1.316-9.292,3.2-13.876,1.101l-0.876-0.399L136.271,170.932z M145.448,159.624c2.924-1.2,8.239-4.651,11.2-6.647
		c0.592,0.924,1.801,1.228,2.76,0.691l3.052,6.268c-0.495,0.209-0.868,0.631-1.012,1.148c-0.125,0.494-0.097,1.016,0.084,1.492
		c-0.8,0.443-1.673,0.996-2.673,1.645c-2.908,1.949-5.974,3.659-9.159,5.111c-4.324,1.964-7.636,2.152-9.652,1.964
		c-0.524-0.048-1.046-0.132-1.56-0.252c-0.314-1.204-1.34-2.089-2.576-2.224l-3.252-6.264c0.332-0.024,0.764-0.226,0.848-1.068
		C137.844,162.3,142.68,160.76,145.448,159.624z"/>
	<path fill="#EBEBEB" d="M44.988,124.88c0,0-3.224,1.601-7.444,4.093c-5.144,3.051-15.732,9.061-22.5,4.315l-6.196-12.164
		c0,0,3.976,1.824,10.028,1.036c5.396-0.7,9.72-3.544,11.664-4.855c0.8-0.529,1.82-1.248,2.636-1.731
		c1.36-0.802,2.988-2,5.368-3.169L44.988,124.88z"/>
	<path fill="#F5F5F5" d="M22.8,127.855c-0.448-2.563,1.376-5.027,4.076-5.5s5.252,1.221,5.704,3.785
		c0.452,2.563-1.38,5.026-4.072,5.5C25.816,132.111,23.256,130.42,22.8,127.855z"/>
	<path fill="#EBEBEB" d="M26.08,125.084l-0.4-0.62l0.492-0.315l0.4,0.604c0.455-0.269,0.982-0.39,1.508-0.349l0.16,0.849
		c-0.413-0.041-0.829,0.035-1.2,0.222l0.58,0.928c0.644-0.205,1.384-0.4,1.892,0.398c0.376,0.584,0.32,1.332-0.4,1.934l0.4,0.61
		l-0.492,0.316l-0.4-0.604c-0.366,0.205-0.78,0.313-1.2,0.309l-0.188-0.838c0.323,0.004,0.642-0.064,0.936-0.198l-0.604-0.937
		c-0.64,0.207-1.368,0.399-1.872-0.399C25.324,126.424,25.376,125.684,26.08,125.084z M26.44,126.42
		c0.128,0.191,0.336,0.208,0.6,0.152l-0.488-0.76C26.367,125.957,26.319,126.218,26.44,126.42z M28.144,127.221l0.504,0.799
		c0.193-0.156,0.236-0.435,0.1-0.644c-0.124-0.224-0.348-0.231-0.604-0.176V127.221z"/>
	<path fill="#F5F5F5" d="M15.712,133.352l0.084,0.049c0.2,0.119,5.028,2.867,13.636-1.049c3.216-1.463,6.307-3.187,9.244-5.15
		c1.864-1.2,3.2-2.084,4.688-2.477l0.4-0.104l-5.584-11.452l-0.316,0.226c-0.092,0.063-9.176,6.375-13.224,8.035
		c-3.2,1.315-9.292,3.199-13.876,1.1l-0.88-0.399L15.712,133.352z M24.892,122.044c2.924-1.2,8.24-4.651,11.2-6.647
		c0.594,0.924,1.805,1.228,2.764,0.691l3.048,6.268c-0.496,0.207-0.868,0.631-1.008,1.148c-0.127,0.494-0.1,1.016,0.08,1.492
		c-0.8,0.439-1.668,0.992-2.672,1.645c-2.907,1.951-5.969,3.659-9.156,5.107c-4.324,1.968-7.636,2.156-9.656,1.968
		c-0.525-0.048-1.046-0.132-1.56-0.252c-0.313-1.205-1.338-2.092-2.576-2.228l-3.252-6.264c0.332-0.024,0.764-0.226,0.852-1.068
		C17.284,124.721,22.12,123.176,24.892,122.044z"/>
	<path fill="#EBEBEB" d="M144.532,126.876c0,0,6.18-7.244,18.327-2.58c0.461,0.181,0.938,0.313,1.425,0.399
		c1.384,0.273,2.815,0.172,4.147-0.295c2.363-0.952,5.731-2.34,5.731-2.34l10.399,6.16c0,0-4.363,3.198-8.588,3.446
		s-9.201-3.2-14.063-2c-2.463,0.533-4.699,1.819-6.399,3.681L144.532,126.876z"/>
	<path fill="#F5F5F5" d="M169.6,128.473c-0.468,0.399-3.283,0.031-6.291-0.861c-3.009-0.891-5.072-1.954-4.604-2.375
		c0.468-0.42,3.288-0.035,6.296,0.859C168.008,126.992,170.084,128.052,169.6,128.473z"/>
	<path fill="#EBEBEB" d="M165.42,127.656l0.191,0.203l-0.631-0.139l-0.188-0.197c-0.579-0.131-1.151-0.295-1.712-0.491l0.141-0.144
		c0.441,0.156,0.891,0.291,1.348,0.398l-0.283-0.301c-0.748-0.203-1.602-0.443-1.842-0.703c-0.184-0.188,0.148-0.248,1.117-0.061
		l-0.188-0.201l0.632,0.142l0.188,0.194c0.483,0.117,0.979,0.252,1.389,0.4l-0.107,0.152c-0.373-0.124-0.729-0.225-1.057-0.305
		l0.292,0.305c0.744,0.204,1.601,0.439,1.824,0.691C166.708,127.784,166.4,127.84,165.42,127.656z M164.032,126.721l-0.244-0.257
		c-0.312-0.052-0.399-0.028-0.34,0.032C163.628,126.605,163.826,126.682,164.032,126.721z M165.532,127.396
		c-0.177-0.108-0.37-0.186-0.572-0.226l0.235,0.248C165.492,127.468,165.6,127.452,165.532,127.396z"/>
	<path fill="#F5F5F5" d="M174.023,122.8l-0.111,0.056c-1.954,0.963-3.99,1.746-6.084,2.346c-1.452,0.367-2.133,0.252-3.372,0.035
		c-0.24-0.041-0.5-0.088-0.8-0.133c-0.725-0.149-1.438-0.35-2.137-0.596c-1.571-0.508-3.527-1.136-5.483-1.199H156
		c-0.057,0-5.443-0.461-9.813,3.057l-0.265,0.208l9.353,5.659l0.129-0.115c0.052-0.049,5.068-4.58,11.848-2.872
		c0.8,0.198,1.548,0.399,2.248,0.584c5.496,1.452,8.252,2.18,13.771-1.138l0.34-0.202L174.023,122.8z M169.624,129.355
		c-0.7-0.188-1.448-0.399-2.252-0.588c-4.612-1.16-8.433,0.465-10.532,1.731c-0.957-0.592-2.191-0.478-3.023,0.28l-5.469-3.313
		c1.057-0.92,0.44-1.716,0.08-2.044c2.326-1.209,4.93-1.783,7.549-1.668c1.92,0.057,3.859,0.676,5.416,1.176
		c0.721,0.256,1.459,0.461,2.207,0.612l0.801,0.132c1.261,0.221,2.021,0.352,3.567-0.04c1.563-0.431,3.091-0.978,4.572-1.636
		c0.399,0.34,1.42,0.98,2.952,0.212l5.58,3.3c-0.4,0.2-1.045,0.713-0.049,1.836c-4.107,1.94-6.756,1.244-11.424,0.018
		L169.624,129.355z"/>
	<path fill="#EBEBEB" d="M50.4,75.156c0,0-0.1-9.524,12.124-14c0.467-0.165,0.916-0.377,1.34-0.632
		c1.224-0.693,2.238-1.703,2.936-2.924c1.16-2.272,2.8-5.528,2.8-5.528l11.892-2.196c0,0-1.2,5.268-4.208,8.244
		c-3.008,2.976-9.052,3.644-11.924,7.72c-1.503,2.022-2.342,4.461-2.4,6.98L50.4,75.156z"/>
	<path fill="#F5F5F5" d="M70.368,59.876c-0.076,0.624-2.456,2.184-5.312,3.488c-2.856,1.304-5.104,1.856-5.028,1.232
		c0.076-0.624,2.456-2.188,5.312-3.488C68.196,59.808,70.444,59.252,70.368,59.876z"/>
	<path fill="#EBEBEB" d="M66.668,62.02l0.28,0.028l-0.568,0.308l-0.272-0.024c-0.52,0.279-1.054,0.531-1.6,0.756v-0.2
		c0.436-0.174,0.861-0.37,1.276-0.588l-0.4-0.04c-0.7,0.34-1.496,0.716-1.848,0.68c-0.264-0.024-0.052-0.284,0.8-0.78l-0.276-0.024
		l0.568-0.312l0.268,0.024c0.444-0.232,0.908-0.452,1.308-0.616v0.184c-0.364,0.152-0.7,0.312-1,0.464l0.42,0.04
		c0.696-0.336,1.48-0.708,1.832-0.676C67.724,61.272,67.516,61.528,66.668,62.02z M65.008,62.224l-0.352-0.032
		c-0.272,0.168-0.32,0.24-0.236,0.248C64.627,62.402,64.826,62.329,65.008,62.224z M66.58,61.748c-0.204,0.036-0.4,0.106-0.58,0.208
		l0.344,0.032C66.6,61.832,66.66,61.756,66.58,61.748z"/>
	<path fill="#F5F5F5" d="M69.972,52.712l-0.048,0.116c-0.848,2.003-1.872,3.926-3.06,5.748c-0.852,1.232-1.444,1.6-2.521,2.244
		l-0.684,0.4c-0.645,0.362-1.313,0.68-2,0.952c-1.52,0.652-3.404,1.464-4.92,2.704l-0.036,0.028c-0.044,0.032-4.4,3.228-5.392,8.748
		l-0.06,0.332L62,72.128l0.02-0.176c0-0.068,0.8-6.78,7.044-9.948c0.74-0.376,1.432-0.716,2.08-1.036
		c5.112-2.516,7.656-3.768,9.656-9.904l0.124-0.372L69.972,52.712z M70.952,60.548c-0.648,0.32-1.344,0.664-2.08,1.04
		c-4.24,2.156-6.056,5.888-6.8,8.224c-1.11,0.182-1.966,1.078-2.096,2.196l-6.3,1.096c0.192-1.384-0.8-1.58-1.28-1.6
		c0.958-2.439,2.542-4.584,4.592-6.216c1.484-1.22,3.352-2.028,4.856-2.672c0.711-0.281,1.403-0.611,2.068-0.988
		c0.248-0.156,0.472-0.292,0.68-0.4c1.092-0.664,1.752-1.064,2.66-2.376c0.906-1.355,1.708-2.776,2.4-4.252
		c0.516,0,1.716-0.196,2.364-1.78l6.384-1.184c-0.184,0.4-0.32,1.2,1.168,1.416C77.72,57.2,75.268,58.42,70.952,60.548z"/>
	<path fill="#EBEBEB" d="M138.956,33.74c0,0,5.844-7.532,18.188-3.452c0.467,0.158,0.948,0.271,1.438,0.336
		c1.396,0.209,2.821,0.039,4.128-0.492c2.314-1.064,5.602-2.612,5.602-2.612l10.69,5.656c0,0-4.208,3.384-8.399,3.856
		c-4.191,0.472-9.359-2.756-14.141-1.344c-2.438,0.656-4.611,2.054-6.22,4L138.956,33.74z"/>
	<path fill="#F5F5F5" d="M164.092,34.132c-0.447,0.44-3.283,0.192-6.332-0.556c-3.048-0.748-5.156-1.712-4.707-2.152
		c0.447-0.44,3.279-0.192,6.327,0.556S164.54,33.692,164.092,34.132z"/>
	<path fill="#EBEBEB" d="M159.859,33.52l0.201,0.192l-0.638-0.112l-0.194-0.188c-0.586-0.1-1.166-0.233-1.736-0.4l0.132-0.148
		c0.399,0.116,0.896,0.24,1.368,0.332l-0.301-0.288c-0.756-0.168-1.601-0.364-1.871-0.612c-0.192-0.18,0.136-0.256,1.115-0.112
		l-0.199-0.192l0.636,0.108l0.196,0.188c0.492,0.092,0.992,0.204,1.408,0.324l-0.102,0.16c-0.376-0.108-0.738-0.192-1.066-0.256
		l0.303,0.292c0.757,0.164,1.601,0.36,1.853,0.604C161.152,33.6,160.828,33.66,159.859,33.52z M158.428,32.652l-0.256-0.244
		c-0.316-0.036-0.4,0-0.34,0.048C158.018,32.554,158.221,32.621,158.428,32.652z M159.96,33.252
		c-0.183-0.098-0.38-0.164-0.584-0.196l0.248,0.236C159.924,33.328,160,33.308,159.96,33.252z"/>
	<path fill="#F5F5F5" d="M168.221,28.268l-0.109,0.06c-1.905,1.044-3.901,1.918-5.963,2.612c-1.437,0.436-2.121,0.352-3.369,0.196
		l-0.799-0.096c-0.731-0.115-1.455-0.279-2.164-0.492c-1.601-0.432-3.58-0.964-5.537-0.932h-0.047c-0.057,0-5.457-0.2-9.655,3.52
		l-0.248,0.22l9.601,5.2l0.123-0.124c0.049-0.048,4.846-4.8,11.696-3.436c0.8,0.164,1.567,0.324,2.274,0.476
		c5.558,1.2,8.346,1.784,13.701-1.792l0.327-0.22L168.221,28.268z M164.132,35.024c-0.708-0.152-1.464-0.316-2.276-0.48
		c-4.654-0.944-8.402,0.868-10.438,2.256c-0.981-0.556-2.213-0.392-3.017,0.4l-5.601-3.048c1.009-0.968,0.353-1.732-0.021-2.044
		c2.267-1.318,4.84-2.018,7.461-2.028c1.92-0.036,3.884,0.488,5.464,0.916c0.733,0.22,1.479,0.39,2.235,0.508l0.801,0.092
		c1.186,0.235,2.41,0.162,3.56-0.212c1.546-0.501,3.05-1.119,4.5-1.848c0.4,0.316,1.468,0.908,2.96,0.072l5.729,3.028
		c-0.4,0.216-1.005,0.76,0.038,1.836C171.512,36.6,168.84,36.028,164.132,35.024z"/>
</g>
<g id="trait">
	<path fill="#263238" d="M185.92,191.512c0,0.057-37.756,0.104-84.316,0.104c-46.56,0-84.324-0.048-84.324-0.104
		c0-0.056,37.748-0.104,84.324-0.104C148.18,191.408,185.92,191.456,185.92,191.512z"/>
</g>
<g id="etoile">
	<path fill="#FF725E" d="M178.1,106.172l0.252,0.42c0.287,0.473,0.703,0.854,1.2,1.096l0.44,0.217l-0.42,0.253
		c-0.473,0.286-0.854,0.702-1.096,1.198l-0.218,0.44l-0.252-0.399c-0.286-0.474-0.702-0.854-1.198-1.097l-0.44-0.216l0.42-0.252
		c0.474-0.287,0.854-0.703,1.096-1.2L178.1,106.172z"/>
	<path fill="#FF725E" d="M56.184,184.355l0.244,0.399c0.274,0.457,0.674,0.826,1.152,1.063l0.428,0.207l-0.4,0.244
		c-0.456,0.277-0.824,0.679-1.06,1.156l-0.212,0.424l-0.244-0.398c-0.275-0.456-0.675-0.823-1.152-1.061l-0.428-0.213l0.4-0.244
		c0.456-0.274,0.824-0.676,1.064-1.15L56.184,184.355z"/>
	<path fill="#FF725E" d="M31.652,51.152l0.44,0.732c0.495,0.821,1.213,1.483,2.072,1.908l0.764,0.4l-0.728,0.44
		c-0.823,0.492-1.485,1.212-1.908,2.072l-0.4,0.764l-0.44-0.732c-0.484-0.829-1.196-1.501-2.052-1.936l-0.764-0.4l0.732-0.44
		c0.819-0.494,1.481-1.211,1.908-2.068L31.652,51.152z"/>
	<path fill="#FF725E" d="M120,25.548l0.439,0.732c0.494,0.822,1.213,1.484,2.072,1.908l0.764,0.4l-0.731,0.44
		c-0.821,0.493-1.483,1.213-1.907,2.072l-0.377,0.764l-0.439-0.732c-0.491-0.829-1.211-1.499-2.071-1.932l-0.769-0.4l0.731-0.44
		c0.821-0.493,1.483-1.212,1.908-2.072L120,25.548z"/>
	<path fill="#FF725E" d="M186.8,89.772l0.173,0.284c0.189,0.321,0.467,0.582,0.799,0.752l0.302,0.148l-0.288,0.176
		c-0.321,0.19-0.583,0.467-0.752,0.8l-0.148,0.304l-0.172-0.288c-0.189-0.322-0.468-0.583-0.8-0.752l-0.302-0.148l0.289-0.172
		c0.32-0.191,0.58-0.468,0.752-0.8L186.8,89.772z"/>
	<path fill="#FF725E" d="M39.476,88.108l0.18,0.296c0.198,0.335,0.49,0.605,0.84,0.776l0.312,0.152l-0.3,0.18
		c-0.332,0.2-0.6,0.492-0.772,0.84l-0.156,0.312l-0.176-0.3c-0.2-0.333-0.492-0.601-0.84-0.772l-0.312-0.152l0.296-0.18
		c0.335-0.198,0.605-0.49,0.776-0.84L39.476,88.108z"/>
	<path fill="#FF725E" d="M69.964,36.104l0.18,0.296c0.202,0.333,0.493,0.602,0.84,0.776l0.308,0.152l-0.296,0.18
		c-0.333,0.201-0.6,0.492-0.772,0.84l-0.156,0.308l-0.176-0.296c-0.204-0.328-0.497-0.591-0.844-0.76l-0.308-0.156l0.296-0.176
		c0.336-0.209,0.605-0.511,0.776-0.868L69.964,36.104z"/>
</g>
<g id="femme">
	<path fill="#BA7E6D" d="M139.355,128.532c0,0.428,2.58,11.815,2.58,11.815s5.373-3.652,7.412-5.371
		c2.041-1.722,11.924-10.85,11.924-10.85l5.929,5.473c0,0-19.601,26.659-26.54,28.265c-3.564,0.819-7.516-1.872-8.284-3.776
		c-1.731-4.248-4.376-22.352-4.376-22.352l3.844-1.7L139.355,128.532z"/>
	<path fill="#875149" d="M142.164,140.372c-0.416,0.067-0.824,0.175-1.221,0.319c-0.926,0.42-1.703,1.108-2.231,1.977
		c-0.514,0.883-0.903,1.831-1.155,2.82c-0.097,0.416-0.223,0.824-0.377,1.224c0.035-0.428,0.111-0.851,0.229-1.264
		c0.215-1.021,0.593-1.997,1.118-2.896c0.552-0.903,1.38-1.604,2.361-2c0.297-0.11,0.609-0.177,0.928-0.196
		C141.932,140.34,142.05,140.346,142.164,140.372z"/>
	<path fill="#BA7E6D" d="M159.704,125.576c0,0,5.399-6.049,7.58-5.876c2.18,0.172,5.312,0.644,6.184,0.495
		c1.103-0.076,2.207-0.076,3.308,0c0,0,5.66-3.063,6.705-2.823c0,0,0.973-0.052,1.309,0.5c0,0,2.15-1.364,3.704-0.517l-5.642,4.701
		l1.721-0.218c0,0,5.068-2.68,6.673-0.836l-3.828,2.058c0,0,3.181-0.05,3.66,1.244l-7.124,1.144c0,0-13.536,1.132-14.252,1.444
		c-0.717,0.312-3.58,4-3.58,4L159.704,125.576z"/>
	<path fill="#875149" d="M184.863,117.9c-0.1,0.123-0.213,0.234-0.34,0.332c-0.229,0.199-0.563,0.482-0.996,0.8
		c-1.121,0.868-2.299,1.663-3.523,2.38c-0.684,0.4-1.332,0.764-1.964,1.056c-0.563,0.302-1.217,0.39-1.84,0.248l0.1-0.056
		c-0.155,0.48-0.528,0.861-1.008,1.023c-0.129,0.045-0.265,0.067-0.399,0.071c-0.093,0-0.137,0-0.137,0
		c0.168-0.036,0.334-0.083,0.496-0.14c0.426-0.182,0.75-0.541,0.885-0.984l0.023-0.08l0.076,0.024
		c0.584,0.11,1.191,0.014,1.712-0.276c0.608-0.292,1.264-0.668,1.936-1.06c1.429-0.832,2.664-1.681,3.544-2.316l1.036-0.76
		C184.587,118.061,184.721,117.973,184.863,117.9z"/>
	<path fill="#875149" d="M182.852,122.164c-0.213,0.24-0.471,0.439-0.756,0.588c-0.662,0.402-1.391,0.686-2.152,0.832
		c-0.446,0.088-0.879,0.104-1.252,0.172c-0.327,0.064-0.645,0.178-0.938,0.336c-0.272,0.178-0.594,0.27-0.92,0.264
		c0.291-0.113,0.574-0.248,0.849-0.398c0.301-0.188,0.631-0.322,0.977-0.398c0.4-0.084,0.8-0.104,1.244-0.193
		C180.941,123.126,181.939,122.721,182.852,122.164z"/>
	<path fill="#875149" d="M187.712,122.656c-0.226,0.234-0.483,0.434-0.769,0.592c-1.334,0.831-2.864,1.293-4.437,1.34
		c-0.323,0.027-0.649,0.004-0.968-0.068c1.081-0.063,2.152-0.237,3.199-0.516C186.48,123.492,187.672,122.592,187.712,122.656z"/>
	<path fill="#263238" d="M78.728,160.8c-5.844,9.097-12.628,20.476-16.76,30.728h70.4l-8.4-30.728H78.728z"/>
	<path fill="#BA7E6D" d="M35.136,127.523c0,0,4.972,7.293,6.66,9.201c1.688,1.906,8.8,12.106,12.5,16.19
		c3.7,4.084,7.736,6.332,10.348,6.332c2.68,0,5.392-0.916,7.52-5.912c3.072-7.2,5.66-28.399,5.66-28.399l-12-4.399l-4.36,21.952l0,0
		c-1.172-1.168-19.664-18.4-19.664-18.4l-4.24,1.76L35.136,127.523z"/>
	<path fill="#BA7E6D" d="M19.712,118.54c0,0,0.284-0.508,1.864-0.28c1.58,0.229,4.352,1.864,4.972,1.864
		c0.62,0,7.568,0.224,8.924,0.563c1.356,0.338,3.464,0.545,4.704,1.84l2,1.785L35.468,128c-0.508-0.678-1.297-1.086-2.144-1.107
		c-1.524-0.093-8.524-0.443-8.524-0.443l-5.424-1.248l-6.892-3.332c0.323-0.773,1.157-1.206,1.976-1.021
		c1.412,0.34,4.068,1.301,4.068,1.301l2.316,0.707l-6.1-2.912c0.806-0.822,2.015-1.106,3.104-0.73c1.92,0.62,5.2,2.088,5.2,2.088
		l0.452-0.168L19.712,118.54z"/>
	<path fill="#875149" d="M27.336,122.552c-0.705,0.056-1.413-0.061-2.064-0.336c-0.675-0.212-1.29-0.585-1.792-1.084
		c0.036-0.052,0.8,0.505,1.86,0.892C26.4,122.412,27.34,122.492,27.336,122.552z"/>
	<path fill="#875149" d="M26.06,124.3c-0.294,0.072-0.598,0.095-0.9,0.068c-1.468-0.036-2.896-0.478-4.128-1.276
		c-0.264-0.15-0.503-0.34-0.708-0.564c0.866,0.527,1.786,0.962,2.744,1.293C24.045,124.086,25.048,124.247,26.06,124.3z"/>
	<path fill="#875149" d="M13.968,122.6c-0.488,0.234-0.79,0.736-0.768,1.276c2.291,0.749,4.644,1.292,7.032,1.62"/>
	<path fill="#875149" d="M65.696,151.748c-0.044,0,0.04-0.607-0.024-1.6c-0.037-0.569-0.122-1.135-0.252-1.688
		c-0.166-0.677-0.394-1.337-0.68-1.972c-0.295-0.633-0.649-1.234-1.056-1.801c-0.336-0.461-0.709-0.894-1.116-1.291
		c-0.7-0.682-1.2-1.014-1.2-1.045c0.133,0.056,0.258,0.129,0.372,0.217c0.141,0.088,0.274,0.187,0.4,0.296
		c0.152,0.124,0.336,0.256,0.512,0.428c0.428,0.392,0.819,0.821,1.168,1.284c0.859,1.139,1.462,2.449,1.768,3.844
		c0.123,0.566,0.194,1.145,0.212,1.725c0.012,0.222,0.012,0.442,0,0.664c-0.002,0.168-0.017,0.334-0.044,0.5
		C65.754,151.457,65.734,151.604,65.696,151.748z"/>
	<path fill="#455A64" d="M77.168,99.276c-1.66,1.024-5.496,4.132-9.464,12.533c-5.284,11.172-6.656,18.145-6.656,18.145
		l14.044,5.016l4.256-36.744C79.348,98.224,77.716,98.94,77.168,99.276z"/>
	<path fill="#455A64" d="M74.12,110.98c0,0,0.332,11.854,0.332,15.076c0,3.219,1.44,27.436,1.44,27.436s0,7.968,4.948,7.844
		c4.948-0.124,13.408,0.836,16.756,0.836c2.468,0,16.496,0.164,23.88-0.496c3.5-0.312,4.848-2.02,5.928-4.8
		c0.144-0.376,0.056-0.155,0.144-0.376c2.116-5.2,0.479-27.452,0.479-27.452l-2.619-20.116l-5.969-11.868l-33.803-0.108
		C74.8,97.7,74.8,102.148,74.12,110.98z"/>
	<path fill="#455A64" d="M133.572,106.8c-5.568-9.24-14.133-9.72-14.133-9.72l5.057,41.668l4-1.112c0.296-0.1,15-5.964,15-5.964
		S136.996,112.473,133.572,106.8z"/>
	<path fill="#263238" d="M123.652,109.775c0,0,0.02,0.023,0.052,0.08s0.075,0.147,0.124,0.248c0.104,0.217,0.271,0.537,0.46,0.961
		c0.399,0.84,0.896,2.084,1.428,3.65c1.345,4.104,2.212,8.35,2.584,12.652c0.372,4.296,0.505,8.607,0.4,12.92
		c-0.028,1.65-0.068,2.986-0.101,3.912c0,0.447-0.031,0.8-0.039,1.063c0,0.112,0,0.204,0,0.28c0.004,0.03,0.004,0.062,0,0.093
		c-0.004-0.033-0.004-0.064,0-0.097v-0.276c0-0.26,0-0.615,0-1.063c0-0.944,0-2.276,0.03-3.916c0.065-4.305-0.086-8.608-0.45-12.896
		c-0.375-4.289-1.219-8.523-2.518-12.629c-0.514-1.568-1-2.8-1.364-3.664c-0.172-0.428-0.327-0.752-0.399-0.976l-0.107-0.257
		C123.716,109.838,123.682,109.809,123.652,109.775z"/>
	<g opacity="0.3">
		<path d="M99.064,137.296c1.778-1.78,3.948-3.124,6.336-3.92c3.16-1.021,12.52-2.972,15.004-3.884
			c2.738-1.012,5.234-2.586,7.324-4.624l10.986,9.024c-1.908,1.711-4.004,3.199-6.248,4.438c-3.535,1.899-12.252,1.908-16.943,4.726
			c-3.039,1.822-6.977,7.164-6.977,7.164L99.064,137.296z"/>
	</g>
	<g opacity="0.3">
		<path d="M114.188,186.128c-2.51-0.201-4.938-0.985-7.092-2.288c-2.828-1.744-10.375-7.6-12.68-8.908
			c-2.586-1.449-5.378-2.494-8.28-3.1l-0.236-13.7c2.539,0.345,5.031,0.976,7.428,1.88c3.74,1.465,9.393,8.096,14.58,9.848
			c3.355,1.134,9.976,0.668,9.976,0.668L114.188,186.128z"/>
	</g>
	<g opacity="0.3">
		<path d="M65.06,117.424c2.8,0.944,6.344-0.66,8.14-3.008c1.796-2.348,3.552-5.355,3.98-8.28c-2.052,0-4.84,0.152-6.892,0.148
			L65.06,117.424z"/>
	</g>
	<path fill="#263238" d="M74.8,120.648c0.019,0.106,0.026,0.218,0.024,0.328l0.036,0.942c0.024,0.84,0.056,2.022,0.096,3.478
		c0.08,2.946,0.188,6.992,0.304,11.459c0.116,4.469,0.272,8.523,0.4,11.457c0.072,1.451,0.128,2.631,0.168,3.472
		c0,0.399,0.032,0.708,0.044,0.944c0.006,0.108,0.006,0.219,0,0.328c-0.026-0.108-0.041-0.22-0.044-0.328
		c-0.024-0.232-0.052-0.549-0.084-0.94c-0.076-0.8-0.148-2-0.236-3.468c-0.168-2.932-0.332-6.984-0.464-11.461
		s-0.204-8.527-0.244-11.463c0-1.453-0.02-2.633-0.028-3.478c0-0.399,0-0.708,0-0.942C74.771,120.866,74.781,120.756,74.8,120.648z"
		/>
	<g opacity="0.3">
		<path d="M75.168,145.439C71.512,137.2,72.056,128,74.8,119.4c0.4,8.379,0.584,17.65,0.38,26.039"/>
	</g>
	<path fill="#263238" d="M118.8,57.476c-0.937-3.017-3.043-5.532-5.848-6.984c-3.052-1.556-6.692-1.688-10.032-0.92
		c-3.34,0.768-6.424,2.38-9.34,4.18c-1.636,1.008-3.264,2.112-4.4,3.652c-2.104,2.8-4.132,7.38-4.244,10.888
		c-0.088,2.836,1.2,9.892,2.468,12.428c0.452,0.904,1.512,1.7,2.8,2.372c1.365,2.513,3.168,4.761,5.324,6.64
		c0.6-1.92,1.202-3.84,1.804-5.76L118.8,57.476z"/>
	<path fill="#263238" d="M117.048,54.032l-5.6-0.84c3.256,7.176,4.56,23.764,6.524,31.396c1.971-3.044,6.486-12.268,6.127-15.876
		S123.66,53.224,117.048,54.032z"/>
	<path fill="#BA7E6D" d="M90.94,66.876c0.18-4.252,2.828-7.812,6.92-8.98l12.756-3.644c5.536-0.76,9.436,5.968,9.96,11.528
		c0.58,6.18,1.016,12.708,0.424,17.352c-1.2,9.336-8.271,10.74-8.271,10.74s0.123,4.4,0.195,7.132l-7.568,15.796L93.6,97.872
		l-2.676-30.88C90.9,66.832,90.932,67.088,90.94,66.876z"/>
	<path fill="#263238" d="M117.02,72.604c0.023,0.645-0.468,1.193-1.11,1.24c-0.63,0.069-1.193-0.384-1.263-1.013
		c0-0.007-0.002-0.015-0.002-0.023c-0.022-0.645,0.469-1.193,1.111-1.24c0.629-0.069,1.193,0.385,1.262,1.013
		C117.02,72.588,117.02,72.596,117.02,72.604z"/>
	<path fill="#263238" d="M119.284,69.46c-0.14,0.16-1.063-0.48-2.349-0.436c-1.283,0.044-2.199,0.712-2.345,0.56
		c-0.071-0.068,0.072-0.352,0.474-0.664c0.543-0.402,1.195-0.625,1.871-0.64c0.666-0.023,1.321,0.167,1.873,0.544
		C119.2,69.112,119.355,69.388,119.284,69.46z"/>
	<path fill="#263238" d="M105.948,72.608c0.021,0.644-0.47,1.189-1.112,1.236c-0.628,0.069-1.193-0.384-1.262-1.013
		c-0.001-0.007-0.002-0.015-0.002-0.023c-0.023-0.645,0.468-1.193,1.111-1.24c0.629-0.068,1.192,0.385,1.262,1.013
		C105.945,72.59,105.947,72.599,105.948,72.608z"/>
	<path fill="#263238" d="M107.107,69.808c-0.145,0.16-1.067-0.48-2.349-0.436c-1.278,0.044-2.202,0.712-2.348,0.56
		c-0.068-0.068,0.071-0.352,0.472-0.664c0.544-0.401,1.197-0.625,1.872-0.64c0.667-0.023,1.324,0.166,1.876,0.54
		C107.036,69.46,107.176,69.736,107.107,69.808z"/>
	<path fill="#263238" d="M111.404,79.764c0-0.072,0.8-0.232,2.072-0.44c0.322-0.044,0.631-0.116,0.68-0.34
		c0.02-0.339-0.067-0.676-0.248-0.964l-1.045-2.464c-1.451-3.508-2.516-6.4-2.375-6.456c0.14-0.056,1.436,2.74,2.888,6.248
		l1.008,2.48c0.216,0.39,0.29,0.842,0.208,1.28c-0.089,0.237-0.281,0.42-0.523,0.496c-0.18,0.056-0.364,0.087-0.553,0.092
		C112.216,79.808,111.412,79.84,111.404,79.764z"/>
	<path fill="#875149" d="M100.308,90.916c0,0,3.2,6.296,12.48,5.14l-0.06-2.184C108.395,94.056,104.096,93.032,100.308,90.916z"/>
	<path fill="#263238" d="M106.572,65.2c-0.116,0.352-1.4,0.224-2.9,0.452s-2.699,0.676-2.912,0.368
		c-0.092-0.144,0.108-0.48,0.588-0.832c1.303-0.877,2.935-1.109,4.428-0.628C106.336,64.756,106.62,65.02,106.572,65.2z"/>
	<path fill="#263238" d="M118.756,65.552c-0.216,0.296-1.111,0.024-2.172,0.04c-1.061,0.016-1.956,0.256-2.172-0.04
		c-0.096-0.148,0.036-0.444,0.42-0.732c0.516-0.352,1.127-0.538,1.752-0.532c0.624-0.007,1.234,0.181,1.748,0.536
		C118.716,65.108,118.852,65.404,118.756,65.552z"/>
	<path fill="#263238" d="M117.809,57.368c-0.607-1.384-2.164-2.18-3.672-2.212c-1.509-0.032-2.969,0.58-4.253,1.372
		c-5.444,3.356-8.067,11.164-13.44,14.628c-1.32,0.852-3.092,0.156-4.208,1.268c-1.116,1.112-1.804,2.856-1.132,4.276
		c-0.813-0.952-1.487-2.014-2-3.156c-0.504-1.159-0.485-2.479,0.052-3.624c0.448-0.832,1.268-1.484,1.468-2.4
		c0.18-0.8-0.164-1.648-0.152-2.484c0.073-0.852,0.347-1.675,0.8-2.4c2.032-3.852,4.884-7.36,8.616-9.6
		c2.441-1.503,5.245-2.313,8.112-2.34c2.871-0.014,5.654,0.999,7.844,2.856c1.256,1.108,2.576,2.248,2,3.816"/>
	<path fill="#BA7E6D" d="M92.4,73.572c-0.104-0.264-5-1.876-4.92,3.28c0.08,5.008,5.104,3.876,5.108,3.732S92.4,73.572,92.4,73.572z
		"/>
	<path fill="#875149" d="M91.012,78.716c-0.02,0-0.084,0.064-0.232,0.136c-0.206,0.091-0.439,0.1-0.652,0.024
		c-0.532-0.184-0.992-1.016-1.036-1.916c-0.019-0.428,0.056-0.856,0.22-1.252c0.089-0.32,0.33-0.576,0.644-0.684
		c0.206-0.058,0.423,0.038,0.52,0.228c0.068,0.14,0.04,0.24,0.068,0.248s0.104-0.084,0.06-0.292
		c-0.031-0.123-0.103-0.232-0.204-0.308c-0.139-0.103-0.313-0.146-0.484-0.12c-0.417,0.093-0.757,0.396-0.896,0.8
		c-0.206,0.437-0.3,0.917-0.276,1.4c0.052,1.008,0.588,1.944,1.316,2.136c0.275,0.079,0.571,0.024,0.8-0.148
		C91.004,78.84,91.032,78.728,91.012,78.716z"/>
	<path fill="#455A64" d="M90.34,71.056c0.105-0.047,0.204-0.106,0.296-0.176c0.188-0.128,0.48-0.3,0.824-0.556
		c0.965-0.751,1.848-1.602,2.632-2.54c1.15-1.404,2.218-2.874,3.2-4.4c1.182-1.864,2.52-3.625,4-5.264
		c0.786-0.819,1.659-1.55,2.604-2.18c0.886-0.577,1.84-1.043,2.84-1.388c1.695-0.597,3.488-0.868,5.283-0.8
		c1.213,0.039,2.414,0.239,3.571,0.596c0.4,0.112,0.726,0.244,0.937,0.316c0.107,0.045,0.219,0.081,0.332,0.108
		c-0.099-0.06-0.203-0.11-0.313-0.148c-0.301-0.14-0.609-0.26-0.928-0.36c-1.162-0.394-2.374-0.62-3.602-0.672
		c-1.817-0.094-3.639,0.166-5.358,0.764c-1.019,0.344-1.99,0.815-2.894,1.4c-0.961,0.638-1.852,1.38-2.65,2.212
		c-1.483,1.649-2.821,3.422-4,5.3c-0.967,1.52-2.012,2.989-3.132,4.4c-0.767,0.939-1.625,1.801-2.56,2.572
		c-0.336,0.268-0.616,0.452-0.8,0.588C90.523,70.896,90.428,70.973,90.34,71.056z"/>
	<path fill="#FFFFFF" d="M90.468,79.62c-0.537-0.084-1.04,0.283-1.124,0.82c-0.084,0.537,0.283,1.04,0.82,1.125
		c0.537,0.084,1.04-0.283,1.124-0.82c0.07-0.444-0.17-0.879-0.583-1.057"/>
	<path fill="#263238" d="M90.704,79.688c0.221,0.165,0.386,0.394,0.472,0.656c0.083,0.279,0.016,0.582-0.176,0.8
		c-0.298,0.378-0.846,0.444-1.225,0.146c-0.184-0.145-0.302-0.357-0.328-0.59c-0.043-0.284,0.059-0.571,0.272-0.764
		c0.211-0.178,0.472-0.286,0.748-0.308c0,0-0.076-0.052-0.236-0.048c-0.576,0.026-1.022,0.514-0.996,1.09
		c0.001,0.019,0.002,0.039,0.004,0.058c0.054,0.589,0.576,1.023,1.165,0.97c0.299-0.028,0.573-0.179,0.755-0.418
		c0.226-0.271,0.29-0.641,0.168-0.972c-0.071-0.216-0.211-0.402-0.4-0.528C90.8,79.684,90.708,79.676,90.704,79.688z"/>
	<path fill="#263238" d="M91.64,72.436c-0.04,1.372-0.064,2.8,0.604,4c0.668,1.2,2.284,1.976,3.452,1.264
		c0.952-0.58,1.2-1.832,1.34-2.94c0.4-3.2,0.512-6.432,0.92-9.628L91.64,72.436z"/>
	<path fill="#455A64" d="M116.508,55.02c0,0.032-0.443-0.068-1.244-0.072c-1.134,0.011-2.254,0.25-3.296,0.7
		c-0.72,0.301-1.405,0.679-2.044,1.128c-0.73,0.524-1.432,1.09-2.096,1.696c-1.535,1.376-2.898,2.933-4.061,4.636
		c-0.611,0.912-1.147,1.844-1.735,2.712c-0.554,0.847-1.204,1.624-1.94,2.316c-1.266,1.137-2.658,2.125-4.148,2.948
		c-1.264,0.712-2.32,1.2-3.048,1.568l-0.844,0.4c-0.097,0.052-0.199,0.092-0.304,0.12c0.084-0.069,0.177-0.126,0.276-0.172
		l0.824-0.436c0.712-0.376,1.752-0.908,2.996-1.64c1.461-0.837,2.827-1.833,4.072-2.968c0.716-0.683,1.35-1.446,1.889-2.276
		c0.575-0.86,1.111-1.796,1.729-2.716c1.175-1.722,2.561-3.292,4.124-4.672c0.675-0.611,1.389-1.177,2.136-1.696
		c0.657-0.45,1.359-0.826,2.102-1.12c1.065-0.443,2.215-0.656,3.371-0.624c0.313,0.008,0.621,0.042,0.928,0.1
		C116.299,54.963,116.404,54.986,116.508,55.02z"/>
	<path fill="#455A64" d="M91.412,69.348c-0.131,0.121-0.276,0.226-0.432,0.312l-1.248,0.78l-0.42,0.26
		c-0.166,0.103-0.351,0.169-0.544,0.196c-0.118,0.017-0.239-0.009-0.34-0.072c-0.113-0.071-0.186-0.191-0.196-0.324
		c0.005-0.231,0.082-0.455,0.22-0.64c0.428-0.736,0.9-1.54,1.404-2.4l0.204,0.18c-0.481,0.372-1.022,0.659-1.6,0.848
		c-0.575,0.19-1.179,0.278-1.784,0.26c-0.154,0.002-0.308-0.02-0.456-0.064c-0.174-0.047-0.32-0.167-0.4-0.328
		c-0.063-0.17-0.037-0.362,0.072-0.508c0.081-0.116,0.173-0.223,0.276-0.32c0.64-0.659,1.191-1.398,1.64-2.2
		c0.397-0.752,0.738-1.533,1.02-2.336c-0.017,0.231-0.064,0.46-0.14,0.68c-0.174,0.606-0.41,1.194-0.704,1.752
		c-0.436,0.833-0.985,1.602-1.632,2.284c-0.18,0.18-0.36,0.4-0.284,0.544c0.076,0.144,0.352,0.228,0.616,0.22
		c1.156,0.027,2.286-0.344,3.2-1.052l0.584-0.452l-0.4,0.632L88.632,70c-0.111,0.144-0.179,0.315-0.196,0.496
		c0,0.14,0.132,0.22,0.292,0.204c0.318-0.077,0.62-0.212,0.888-0.4l1.288-0.712C91.064,69.489,91.234,69.409,91.412,69.348z"/>
	<path fill="#875149" d="M106.592,82.268c0.176-0.791,0.887-1.345,1.696-1.32c0.581,0.06,1.095,0.405,1.372,0.92
		c0.264,0.518,0.309,1.121,0.124,1.672l-0.024,0.12c-0.529,0.606-1.384,0.813-2.132,0.516
		C106.891,83.849,106.465,83.065,106.592,82.268z"/>
	<path fill="#263238" d="M108.8,84.088c0,0-0.052,0.136-0.256,0.256c-0.298,0.168-0.646,0.221-0.979,0.148
		c-0.506-0.119-0.93-0.46-1.151-0.928c-0.39-0.889-0.19-1.926,0.5-2.608c0.248-0.227,0.589-0.325,0.92-0.264
		c0.47,0.141,0.899,0.384,1.265,0.712c0.629,0.476,1,0.8,0.969,0.84c-0.032,0.04-0.465-0.184-1.137-0.596
		c-0.347-0.262-0.738-0.457-1.156-0.576c-0.215-0.034-0.434,0.036-0.588,0.188c-0.177,0.188-0.313,0.41-0.399,0.652
		c-0.204,0.474-0.204,1.01,0,1.484c0.163,0.381,0.481,0.672,0.876,0.8c0.273,0.086,0.568,0.086,0.844,0
		C108.672,84.136,108.775,84.064,108.8,84.088z"/>
</g>
<g id="billet">
	<path fill="#FF725E" d="M139.527,74.668c2.402,1.013,4.535,2.571,6.229,4.552c2.212,2.636,7.729,10.856,9.572,12.884
		c2.035,2.234,4.52,4.016,7.288,5.228l-4.376,14.057c-2.385-1.164-4.631-2.595-6.692-4.265c-3.2-2.651-6.604-11.012-11.136-14.42
		c-2.932-2.204-9.6-3.9-9.6-3.9L139.527,74.668z"/>
	<g opacity="0.2">
		<path fill="#FFFFFF" d="M161.764,97.752L161.764,97.752c-0.039-0.028-4.399-2.496-6.248-4.548
			c-1.308-1.444-3.324-4.188-5.274-6.844c-1.478-2-2.872-3.912-3.925-5.2c-3.359-4.12-6.037-4.952-6.147-4.984l-0.26-0.08
			l-7.601,11.864l0.477,0.128c0.048,0,4.956,1.34,7.271,3.032c3.084,2.252,4.863,5.248,6.588,8.144c1.231,2.072,2.399,4.028,4,5.74
			c1.422,1.523,3.015,2.881,4.744,4.044c0.688,0.47,1.409,0.892,2.155,1.265l0.376,0.172L161.764,97.752z M140.464,90.552
			c-1.38-1.008-3.548-1.868-5.2-2.432c0.277-0.349,0.42-0.787,0.4-1.232c-0.191-0.724-0.801-0.872-1.428-0.58l4.951-7.704
			l0.041,0.06c0.764,1.072,2.26,0.148,2.358-0.956c0.024,0.02,0.052,0.037,0.08,0.052c1.545,1.071,2.924,2.365,4.088,3.84
			c1.04,1.276,2.433,3.168,3.904,5.176c0.172,0.228,0.34,0.46,0.508,0.688c-1.128-0.52-2.616-0.272-4.021,1.696
			c-1.297,1.824-1.479,4.284-1.141,6.164c-1.232-1.842-2.77-3.46-4.544-4.788v0.016H140.464z M151.148,104.523
			c-1.549-1.655-2.692-3.58-3.904-5.601l-0.344-0.58c1.67,0.501,3.471-0.174,4.398-1.652c0.938-1.572,1.832-3.824,1.2-6.088
			c0.952,1.252,1.824,2.356,2.508,3.116c1.31,1.44,3.562,3.152,4.912,4.132c-0.426,0.119-0.674,0.561-0.556,0.986
			c0.005,0.011,0.009,0.022,0.012,0.034c0.088,0.444,0.504,0.992,1.008,0.884l0.068-0.028l-2.602,8.556
			c-0.398-1.2-1.724-0.641-1.516,0.54c-1.904-1.214-3.648-2.664-5.188-4.316v0.017H151.148z"/>
	</g>
	<path fill="#FF725E" d="M147.744,95.568l-0.46,0.732l-0.584-0.364l0.448-0.716c-0.517-0.351-0.91-0.853-1.129-1.436l0.819-0.6
		c0.166,0.463,0.458,0.871,0.845,1.176l0.685-1.096c-0.536-0.58-1.108-1.276-0.524-2.216c0.436-0.696,1.26-1.012,2.256-0.552
		l0.457-0.728l0.584,0.364l-0.449,0.716c0.408,0.292,0.732,0.687,0.94,1.144l-0.8,0.624c-0.156-0.348-0.389-0.657-0.68-0.904
		l-0.696,1.116c0.54,0.58,1.104,1.268,0.524,2.192C149.557,95.704,148.74,96,147.744,95.568z M148.992,94.512
		c0.145-0.232,0.052-0.46-0.141-0.716l-0.563,0.904C148.537,94.823,148.838,94.743,148.992,94.512L148.992,94.512z M148.973,92.3
		l0.584-0.932c-0.266-0.124-0.58-0.031-0.736,0.216C148.676,91.812,148.771,92.048,148.973,92.3z"/>
	<path fill="#FF725E" d="M99.6,131.336c1.841-1.844,4.087-3.232,6.56-4.057c3.271-1.059,12.964-3.079,15.535-4.023
		c2.844-1.048,5.434-2.684,7.601-4.8l11.376,9.344c-1.979,1.773-4.152,3.316-6.48,4.601c-3.664,1.969-12.688,1.977-17.547,4.893
		c-3.147,1.889-7.225,7.42-7.225,7.42L99.6,131.336z"/>
	<g opacity="0.2">
		<path fill="#FFFFFF" d="M129.352,119.416L129.352,119.416c-0.039,0.027-3.963,3.128-6.566,4.08
			c-1.828,0.668-5.128,1.504-8.324,2.313c-2.398,0.611-4.708,1.199-6.296,1.681c-5.08,1.563-6.858,3.728-6.933,3.819l-0.172,0.207
			l8.141,11.528l0.296-0.399c0.03-0.045,3.106-4.093,5.548-5.601c3.244-2,6.688-2.532,10.021-3.04
			c2.398-0.363,4.631-0.708,6.824-1.544c1.946-0.747,3.803-1.713,5.53-2.88c0.702-0.459,1.371-0.967,2-1.52l0.306-0.285
			L129.352,119.416z M114.652,136.439c-1.452,0.896-3.064,2.584-4.213,3.903c-0.226-0.379-0.58-0.663-1-0.8
			c-0.739-0.096-1.107,0.398-1.071,1.104l-5.276-7.487h0.072c1.279-0.31,0.988-2.04,0-2.55l0.076-0.055
			c1.584-1.037,3.313-1.83,5.132-2.355c1.571-0.484,3.853-1.061,6.265-1.674l0.827-0.207c-0.903,0.849-1.235,2.324,0.06,4.363
			c1.201,1.885,3.412,2.98,5.285,3.373C118.637,134.497,116.555,135.303,114.652,136.439z M131.6,131.792
			c-2.115,0.8-4.328,1.147-6.672,1.508l-0.664,0.101c1.082-1.358,1.131-3.271,0.12-4.685c-1.108-1.456-2.856-3.136-5.2-3.388
			c1.524-0.4,2.873-0.801,3.832-1.156c1.828-0.668,4.26-2.107,5.68-2.996c-0.049,0.439,0.268,0.836,0.705,0.885
			c0.013,0.002,0.023,0.002,0.035,0.004c0.444,0.088,1.104-0.092,1.201-0.601c0.002-0.024,0.002-0.048,0-0.071l6.963,5.623
			c-1.268-0.063-1.244,1.356-0.072,1.602C135.695,129.924,133.704,130.992,131.6,131.792z"/>
	</g>
	<path fill="#FF725E" d="M122.061,131.6l0.508,0.7l-0.557,0.4l-0.496-0.685c-0.52,0.344-1.133,0.521-1.756,0.508l-0.244-0.987
		c0.491,0.021,0.979-0.097,1.404-0.341l-0.756-1.047c-0.744,0.278-1.6,0.552-2.252-0.344c-0.48-0.67-0.465-1.55,0.336-2.302
		l-0.504-0.694l0.561-0.4l0.495,0.684c0.423-0.268,0.908-0.419,1.408-0.439l0.28,0.973c-0.381,0.018-0.754,0.116-1.092,0.292
		l0.771,1.067c0.74-0.289,1.601-0.549,2.229,0.336C122.868,130,122.852,130.859,122.061,131.6z M119.496,129.232l-0.645-0.894
		c-0.215,0.199-0.246,0.527-0.076,0.765c0.156,0.235,0.425,0.231,0.721,0.145V129.232z M121.552,130.032
		c-0.159-0.22-0.399-0.224-0.716-0.144l0.624,0.866c0.19-0.18,0.229-0.469,0.092-0.69V130.032z"/>
	<path fill="#FF725E" d="M100.641,16.084L87.04,14.256L85.6,14.4c-2.464,0.336-4.432,0.932-7.364,4.036
		c-2.852,3.02-4.052,10.736-4.052,10.736s3.384-1.74,8.596-1.624c5.212,0.116,7.108,1.028,7.108,1.028s0.036-5.2,2.264-7.808
		C94.936,17.532,100.641,16.084,100.641,16.084z"/>
	<g opacity="0.2">
		<path d="M100.641,16.084L87.04,14.256L85.6,14.4c-2.464,0.336-4.432,0.932-7.364,4.036c-2.852,3.02-4.052,10.736-4.052,10.736
			s3.384-1.74,8.596-1.624c5.212,0.116,7.108,1.028,7.108,1.028s0.036-5.2,2.264-7.808C94.936,17.532,100.641,16.084,100.641,16.084
			z"/>
	</g>
	<path fill="#FF725E" d="M85.6,14.4c0,0,3.2-0.452,8.264,3.9c3.24,2.776,8.8,11.292,8.8,11.292c1.156-1.584,2.619-2.919,4.304-3.924
		c4.517-2.676,7.104-3.352,7.104-3.352S111.2,18,106.884,16.3C96.468,12.176,85.6,14.4,85.6,14.4z"/>
	<g opacity="0.2">
		<path fill="#FFFFFF" d="M89.824,13.88c0.708,0.376,4.888,1.856,7.78,1.6s3.6-0.724,2.432-1.028
			c-1.623-0.423-3.291-0.648-4.968-0.672C93.32,13.707,91.568,13.74,89.824,13.88z"/>
	</g>
	<g opacity="0.2">
		<path fill="#FFFFFF" d="M112.561,21.4c-1.928-2.03-4.137-3.773-6.561-5.176c-0.512-0.28-1.057-0.548-1.6-0.8
			c-1.861-0.564-3.764-0.982-5.688-1.248c1.824,0.4,4.188,0.592,7.228,2.68c1.523,1.06,2.976,2.22,4.346,3.472
			c-0.477,0.276-0.484,1.228-0.145,1.6c-1.252,0.482-2.451,1.089-3.58,1.812c-1.039,0.686-2.039,1.428-2.996,2.224
			c0.084-0.178,0.117-0.376,0.097-0.572c-0.112-0.632-1.004-1.044-1.601-0.868c-0.244,0.042-0.443,0.219-0.517,0.456
			c-1.712-2.492-4.556-6.456-6.196-7.832c-1.655-1.343-3.496-2.44-5.464-3.256H89.84c-0.704,0.044-1.26,0.12-1.812,0.18
			c2.471,0.822,4.774,2.081,6.8,3.716c2.316,1.944,7.408,9.684,7.46,9.764l0.264,0.4l0.353-0.32c1.302-1.156,2.679-2.225,4.119-3.2
			c1.65-1.059,3.457-1.852,5.354-2.352l0.691-0.156L112.561,21.4z"/>
	</g>
	<path fill="#FF725E" d="M51.092,112.664l12.308,2.1l1.292-0.088c2.248-0.224,4.052-0.699,6.8-3.424
		c2.688-2.652,4.024-9.6,4.024-9.6s-3.128,1.472-7.856,1.199c-4.728-0.271-6.42-1.164-6.42-1.164s-0.2,4.731-2.308,7.017
		C56.32,111.532,51.092,112.664,51.092,112.664z"/>
	<g opacity="0.2">
		<path d="M51.092,112.664l12.308,2.1l1.292-0.088c2.248-0.224,4.052-0.699,6.8-3.424c2.688-2.652,4.024-9.6,4.024-9.6
			s-3.128,1.472-7.856,1.199c-4.728-0.271-6.42-1.164-6.42-1.164s-0.2,4.731-2.308,7.017
			C56.32,111.532,51.092,112.664,51.092,112.664z"/>
	</g>
	<path fill="#FF725E" d="M64.692,114.676c0,0-2.912,0.309-7.38-3.804c-2.852-2.624-7.6-10.54-7.6-10.54
		c-1.099,1.402-2.471,2.568-4.032,3.428c-4.184,2.284-6.56,2.801-6.56,2.801s2.452,4,6.316,5.695
		C54.752,116.348,64.692,114.676,64.692,114.676z"/>
	<g opacity="0.2">
		<path fill="#FFFFFF" d="M60.84,115.016c-0.632-0.367-4.376-1.844-7.012-1.69c-2.636,0.151-3.276,0.54-2.24,0.854
			c1.46,0.437,2.967,0.694,4.488,0.772C57.661,115.068,59.252,115.09,60.84,115.016z"/>
	</g>
	<g opacity="0.2">
		<path fill="#FFFFFF" d="M40.44,107.456c1.685,1.903,3.632,3.556,5.784,4.908c0.456,0.271,0.94,0.532,1.44,0.776
			c1.67,0.574,3.383,1.017,5.124,1.318c-1.644-0.438-3.784-0.676-6.48-2.668c-1.347-1.016-2.627-2.114-3.832-3.292
			c0.44-0.235,0.48-1.101,0.184-1.448c1.152-0.396,2.26-0.908,3.308-1.531c0.969-0.588,1.903-1.229,2.8-1.92
			c-0.082,0.158-0.118,0.338-0.104,0.517c0.08,0.575,0.876,0.979,1.432,0.84c0.224-0.032,0.412-0.187,0.488-0.399
			c1.472,2.315,3.924,6,5.372,7.313c1.455,1.271,3.086,2.326,4.844,3.132h0.036c0.644-0.021,1.152-0.071,1.652-0.106
			c-2.216-0.828-4.264-2.047-6.048-3.602c-2.04-1.836-6.4-9.032-6.456-9.104l-0.228-0.371l-0.332,0.279
			c-1.216,1.006-2.499,1.928-3.84,2.76c-1.532,0.91-3.198,1.572-4.936,1.965l-0.632,0.119L40.44,107.456z"/>
	</g>
	<path fill="#FF725E" d="M139.271,40.12c0,0,2.877-2.34,6.537-5.832c4.463-4.256,13.719-12.736,21.6-9.528l9.035,10.8
		c0,0-4.399-0.916-10.319,1.272c-5.244,1.94-8.924,5.796-10.584,7.568c-0.668,0.716-1.544,1.676-2.248,2.352
		c-1.2,1.136-2.54,2.712-4.664,4.424L139.271,40.12z"/>
	<g opacity="0.2">
		<path fill="#FFFFFF" d="M160.748,32.252c1.044,2.476-0.221,5.368-2.824,6.468c-2.604,1.1-5.561,0-6.604-2.488
			c-1.045-2.488,0.224-5.368,2.828-6.464C156.752,28.672,159.708,29.78,160.748,32.252z"/>
	</g>
	<path fill="#FF725E" d="M158.26,35.56l0.54,0.528L158.4,36.52L157.855,36c-0.396,0.375-0.896,0.619-1.437,0.7l-0.358-0.8
		c0.426-0.054,0.828-0.228,1.16-0.5l-0.802-0.8c-0.601,0.352-1.3,0.712-2,0.036c-0.517-0.5-0.632-1.26-0.058-2.028l-0.534-0.524
		l0.42-0.432l0.526,0.516c0.328-0.293,0.726-0.497,1.152-0.592l0.4,0.8c-0.323,0.069-0.629,0.206-0.896,0.4l0.824,0.8
		c0.596-0.356,1.288-0.708,1.973-0.04C158.716,34.04,158.832,34.8,158.26,35.56z M155.7,33.904l-0.688-0.672
		c-0.156,0.202-0.138,0.489,0.045,0.668C155.229,34.068,155.443,34.028,155.7,33.904z M157.592,34.304
		c-0.172-0.168-0.4-0.132-0.64,0l0.668,0.652c0.167-0.19,0.157-0.477-0.021-0.656L157.592,34.304z"/>
	<g opacity="0.2">
		<path fill="#FFFFFF" d="M166.736,24.848l-0.092-0.028c-0.232-0.076-5.718-1.72-13.461,4.196c-2.895,2.215-5.603,4.662-8.101,7.316
			c-1.601,1.648-2.748,2.836-4.142,3.572l-0.366,0.192l8.224,10.216l0.27-0.296c0.08-0.084,7.748-8.524,11.436-11.128
			c2.924-2.064,8.596-5.368,13.688-4.304L175.2,34.8L166.736,24.848z M160.124,38.332c-2.664,1.876-7.2,6.576-9.731,9.264
			c-0.811-0.793-2.098-0.818-2.937-0.056l-4.508-5.6c0.448-0.322,0.724-0.833,0.747-1.384c0.014-0.526-0.135-1.044-0.424-1.484
			c0.717-0.632,1.449-1.384,2.305-2.268c2.472-2.63,5.154-5.053,8.023-7.244c3.893-2.972,7.176-3.924,9.243-4.2
			c0.539-0.074,1.084-0.111,1.63-0.112c0.59,1.141,1.826,1.796,3.104,1.644l4.712,5.544c-0.328,0.104-0.716,0.4-0.608,1.268
			C167.148,33.884,162.645,36.552,160.124,38.332z"/>
	</g>
	<path fill="#FF725E" d="M24.612,143.452c0,0,2.872,2.344,7.032,5.22c5.076,3.512,15.252,10.86,13.712,19.24l-8.744,11.031
		c0,0,0-4.512-3.332-9.848c-2.976-4.757-7.496-7.601-9.56-8.849c-0.836-0.508-1.952-1.172-2.76-1.726
		c-1.348-0.924-3.168-1.938-5.272-3.672L24.612,143.452z"/>
	<g opacity="0.2">
		
			<ellipse transform="matrix(-0.8236 0.5672 -0.5672 -0.8236 151.5649 270.2556)" fill="#FFFFFF" cx="33.757" cy="158.697" rx="4.86" ry="5.116"/>
	</g>
	<path fill="#FF725E" d="M32.876,161.096l-0.4,0.641l-0.508-0.323l0.4-0.624c-0.446-0.313-0.785-0.753-0.972-1.266l0.724-0.516
		c0.142,0.406,0.394,0.766,0.728,1.036l0.608-0.956c-0.468-0.512-0.96-1.128-0.44-1.939c0.4-0.607,1.108-0.877,1.98-0.465l0.4-0.632
		l0.508,0.324l-0.4,0.62c0.35,0.262,0.625,0.607,0.8,1.008l-0.704,0.54c-0.136-0.306-0.336-0.579-0.588-0.8l-0.612,0.977
		c0.468,0.508,0.956,1.115,0.44,1.92C34.456,161.232,33.744,161.5,32.876,161.096z M33.976,160.184
		c0.128-0.199,0.048-0.398-0.116-0.627l-0.504,0.799C33.576,160.465,33.843,160.391,33.976,160.184z M33.976,158.252l0.516-0.8
		c-0.231-0.106-0.505-0.028-0.644,0.184c-0.124,0.188-0.04,0.392,0.152,0.616H33.976z"/>
	<g opacity="0.2">
		<path fill="#FFFFFF" d="M45.128,167.256v-0.1c0.028-0.24,0.528-5.944-6.836-12.328c-2.754-2.385-5.697-4.543-8.8-6.452
			c-1.936-1.228-3.332-2.116-4.332-3.332l-0.268-0.319l-8.332,10.141l0.344,0.199c0.1,0.061,9.92,5.859,13.2,8.943
			c2.612,2.448,6.996,7.332,6.988,12.536v0.996L45.128,167.256z M30.584,163.508c-2.376-2.224-7.896-5.724-11.044-7.652
			c0.612-0.951,0.377-2.215-0.536-2.883l4.564-5.553c0.406,0.375,0.963,0.541,1.508,0.452c0.518-0.091,0.995-0.341,1.364-0.716
			c0.764,0.576,1.652,1.14,2.692,1.8c3.077,1.892,5.993,4.032,8.72,6.399c3.7,3.201,5.3,6.231,6,8.205
			c0.181,0.513,0.327,1.037,0.436,1.57c-0.996,0.811-1.386,2.151-0.98,3.368l-4.488,5.729c-0.164-0.302-0.54-0.621-1.364-0.34
			C36.36,169.488,32.84,165.62,30.584,163.508z"/>
	</g>
	<path fill="#FF725E" d="M5.6,77.22c0,0,6.4-7.468,18.904-2.66c0.476,0.18,0.967,0.314,1.468,0.4
		c1.427,0.283,2.903,0.178,4.276-0.304c2.44-0.98,5.908-2.4,5.908-2.4l10.732,6.352c0,0-4.5,3.28-8.856,3.556
		c-4.356,0.276-9.504-3.3-14.5-2.08c-2.541,0.55-4.847,1.877-6.6,3.796L5.6,77.22z"/>
	<g opacity="0.2">
		<path fill="#FFFFFF" d="M31.472,78.864c-0.484,0.432-3.388,0.036-6.492-0.884s-5.228-2-4.744-2.452
			c0.484-0.452,3.388-0.036,6.492,0.888S31.952,78.432,31.472,78.864z"/>
	</g>
	<path fill="#FF725E" d="M27.144,78.028l0.196,0.208l-0.652-0.144l-0.192-0.204c-0.597-0.136-1.186-0.305-1.764-0.504l0.144-0.148
		c0.4,0.14,0.908,0.292,1.388,0.4l-0.292-0.308c-0.772-0.212-1.648-0.456-1.9-0.724c-0.184-0.196,0.156-0.256,1.156-0.064
		l-0.196-0.204l0.652,0.14l0.192,0.204c0.5,0.12,1.012,0.26,1.432,0.4l-0.112,0.16c-0.38-0.128-0.752-0.236-1.088-0.316l0.3,0.316
		c0.768,0.208,1.632,0.452,1.88,0.712C28.472,78.16,28.136,78.216,27.144,78.028z M25.712,77.06l-0.252-0.264
		c-0.324-0.052-0.4-0.028-0.352,0.032C25.295,76.938,25.499,77.017,25.712,77.06z M27.26,77.756
		c-0.183-0.11-0.383-0.188-0.592-0.232l0.244,0.256C27.2,77.832,27.316,77.816,27.26,77.756z"/>
	<g opacity="0.2">
		<path fill="#FFFFFF" d="M36,73.028l-0.12,0.056c-2.013,0.986-4.111,1.789-6.268,2.4c-1.5,0.4-2.2,0.26-3.476,0.036l-0.8-0.136
			c-0.748-0.154-1.484-0.359-2.204-0.616c-1.6-0.52-3.636-1.168-5.652-1.232h-0.052c-0.056,0-5.6-0.48-10.116,3.148L7.044,76.9
			l9.64,5.836l0.132-0.124c0.052-0.048,5.224-4.72,12.216-2.96c0.828,0.208,1.6,0.4,2.32,0.604c5.664,1.496,8.504,2.248,14.2-1.172
			l0.344-0.208L36,73.028z M31.472,79.784c-0.724-0.192-1.496-0.4-2.324-0.604c-4.756-1.2-8.696,0.48-10.86,1.788
			c-1.6-0.84-2.708-0.084-3.116,0.284l-5.64-3.412c1.088-0.948,0.452-1.768,0.084-2.108c2.396-1.25,5.08-1.847,7.78-1.732
			c1.98,0.056,3.98,0.696,5.6,1.2c0.743,0.262,1.504,0.474,2.276,0.632l0.8,0.136c1.296,0.228,2.08,0.36,3.676-0.044
			c1.619-0.44,3.202-1.003,4.736-1.684c0.4,0.348,1.468,1.008,3.048,0.22l5.752,3.4c-0.432,0.204-1.076,0.736-0.048,1.896
			C38.992,81.772,36.268,81.052,31.472,79.784z"/>
	</g>
	<path fill="#FF725E" d="M152,178c0,0-0.756-9.788,11.516-15.2c0.469-0.204,0.916-0.454,1.336-0.743
		c1.205-0.807,2.172-1.922,2.801-3.229c1.035-2.4,2.488-5.88,2.488-5.88l12.084-3.072c0,0-0.873,5.5-3.765,8.769
		s-9.063,4.367-11.744,8.76c-1.411,2.183-2.11,4.748-2,7.345L152,178z"/>
	<g opacity="0.2">
		<path fill="#FFFFFF" d="M171.496,160.932c-0.036,0.648-2.376,2.4-5.225,3.952s-5.127,2.261-5.092,1.601
			c0.035-0.659,2.377-2.399,5.225-3.951C169.252,160.98,171.532,160.284,171.496,160.932z"/>
	</g>
	<path fill="#FF725E" d="M167.836,163.393h0.288l-0.563,0.359h-0.281c-0.516,0.324-1.051,0.619-1.6,0.884v-0.204
		c0.438-0.207,0.863-0.438,1.276-0.69h-0.433c-0.691,0.399-1.483,0.836-1.853,0.827c-0.271,0-0.071-0.293,0.771-0.859h-0.282
		l0.563-0.359h0.279c0.436-0.269,0.9-0.527,1.301-0.721l0.031,0.188c-0.359,0.181-0.695,0.363-0.996,0.543h0.436
		c0.692-0.398,1.478-0.832,1.836-0.799C168.872,162.548,168.672,162.828,167.836,163.393z M166.141,163.716h-0.365
		c-0.268,0.188-0.312,0.269-0.224,0.269C165.762,163.93,165.961,163.838,166.141,163.716z M167.74,163.12
		c-0.207,0.051-0.405,0.136-0.584,0.252h0.355c0.239-0.172,0.301-0.252,0.217-0.252H167.74z"/>
	<g opacity="0.2">
		<path fill="#FFFFFF" d="M170.596,153.6l-0.039,0.125c-0.736,2.118-1.658,4.168-2.757,6.123c-0.8,1.324-1.376,1.736-2.437,2.48
			c-0.207,0.145-0.432,0.3-0.676,0.477c-0.642,0.418-1.31,0.793-2,1.119c-1.517,0.776-3.403,1.736-4.875,3.116l-0.037,0.036
			c-0.043,0.035-4.313,3.6-4.947,9.367l-0.04,0.345l10.952-2.668v-0.181c0-0.071,0.371-7.031,6.564-10.719
			c0.734-0.438,1.424-0.832,2.066-1.201c5.07-2.933,7.602-4.399,9.234-10.849l0.102-0.399L170.596,153.6z M172.145,161.6
			c-0.647,0.377-1.34,0.772-2.071,1.2c-4.214,2.509-5.824,6.472-6.437,8.929c-1.126,0.269-1.938,1.244-2,2.399l-6.4,1.556
			c0.101-1.438-0.928-1.572-1.428-1.552c0.818-2.575,2.301-4.89,4.299-6.708c1.44-1.355,3.31-2.316,4.802-3.08
			c0.712-0.34,1.399-0.727,2.06-1.16c0.24-0.176,0.465-0.332,0.67-0.476c1.078-0.756,1.727-1.2,2.574-2.624
			c0.844-1.455,1.575-2.971,2.188-4.536c0.531-0.04,1.752-0.319,2.313-2l6.477-1.644c-0.16,0.443-0.244,1.275,1.301,1.376
			C178.876,157.684,176.436,159.1,172.145,161.6z"/>
	</g>
	<path fill="#FF725E" d="M169.908,81.124c0,0-2.721-9.436,8.195-17.236c0.42-0.292,0.809-0.626,1.16-0.996
		c1.022-1.033,1.748-2.322,2.1-3.732c0.529-2.576,1.248-6.26,1.248-6.26l11.201-5.456c0,0,0.256,5.56-1.912,9.348
		s-8,6.112-9.729,10.956c-0.938,2.424-1.104,5.079-0.468,7.6L169.908,81.124z"/>
	<g opacity="0.2">
		<path fill="#FFFFFF" d="M185.536,60.448c0.096,0.64-1.836,2.848-4.315,4.928s-4.563,3.248-4.66,2.608s1.84-2.848,4.315-4.928
			C183.352,60.976,185.439,59.804,185.536,60.448z"/>
	</g>
	<path fill="#FF725E" d="M182.452,63.6l0.284-0.052l-0.48,0.468l-0.275,0.048c-0.44,0.427-0.907,0.828-1.396,1.2l-0.044-0.2
		c0.385-0.292,0.755-0.603,1.107-0.932l-0.42,0.072c-0.601,0.528-1.289,1.124-1.647,1.2c-0.269,0.044-0.128-0.272,0.584-1
		l-0.284,0.052l0.479-0.468l0.277-0.048c0.375-0.352,0.775-0.7,1.127-0.972l0.068,0.18c-0.316,0.248-0.607,0.5-0.864,0.732
		l0.433-0.076c0.597-0.528,1.275-1.112,1.633-1.172C183.292,62.56,183.156,62.872,182.452,63.6z M180.852,64.264l-0.358,0.06
		c-0.222,0.244-0.248,0.328-0.164,0.312c0.194-0.094,0.375-0.222,0.526-0.376L180.852,64.264z M182.284,63.356
		c-0.193,0.09-0.369,0.213-0.521,0.364l0.353-0.06c0.216-0.232,0.252-0.324,0.172-0.308L182.284,63.356z"/>
	<g opacity="0.2">
		<path fill="#FFFFFF" d="M183.168,53.44v0.128c-0.291,2.223-0.777,4.416-1.456,6.552c-0.508,1.46-0.996,1.98-1.884,2.92
			c-0.176,0.188-0.364,0.4-0.568,0.608c-0.539,0.539-1.115,1.04-1.724,1.5c-1.332,1.068-2.983,2.4-4.144,4.04l-0.033,0.04
			c-0.031,0.044-3.487,4.42-2.947,10.176l0.031,0.344l10.185-4.828l-0.028-0.18c0-0.068-1.06-6.96,4.26-11.824
			c0.629-0.576,1.226-1.104,1.781-1.6c4.371-3.9,6.563-5.856,6.849-12.492v-0.4L183.168,53.44z M186.305,60.952
			c-0.561,0.5-1.156,1.032-1.785,1.6c-3.619,3.308-4.398,7.521-4.496,10.044c-1.053,0.487-1.653,1.614-1.476,2.76l-5.956,2.824
			c-0.191-1.428-1.229-1.352-1.712-1.232c0.278-2.688,1.263-5.255,2.853-7.44c1.137-1.6,2.771-2.936,4.088-4
			c0.632-0.475,1.228-0.993,1.783-1.552c0.201-0.22,0.4-0.4,0.558-0.6c0.903-0.956,1.446-1.536,2-3.092
			c0.521-1.595,0.922-3.226,1.198-4.88c0.518-0.148,1.652-0.668,1.861-2.424l6-2.924c-0.063,0.472,0.023,1.3,1.555,1.088
			C192.107,55.772,190,57.652,186.305,60.952z"/>
	</g>
	<path fill="#FF725E" d="M53.952,49.116c-2.599-0.208-5.113-1.019-7.344-2.368c-2.924-1.808-10.744-7.88-13.128-9.228
		c-2.679-1.497-5.571-2.576-8.576-3.2L24.66,20.132c2.629,0.359,5.209,1.012,7.692,1.948c3.872,1.516,9.728,8.4,15.096,10.196
		c3.48,1.176,10.332,0.692,10.332,0.692L53.952,49.116z"/>
	<g opacity="0.2">
		<path fill="#FFFFFF" d="M25.6,33.744l0.256,0.076c0.048,0,4.708,1.348,7.116,2.716c1.696,0.96,4.472,2.932,7.156,4.84
			c2.036,1.448,3.96,2.8,5.36,3.708c4.484,2.856,7.284,2.8,7.404,2.8h0.268l3.516-13.66l-0.492,0.028
			c-0.052,0-5.132,0.284-7.86-0.596c-3.632-1.168-6.264-3.452-8.8-5.664c-1.82-1.576-3.536-3.068-5.6-4.192
			c-1.838-1.002-3.786-1.792-5.804-2.352c-0.801-0.232-1.618-0.406-2.444-0.52l-0.4-0.048L25.6,33.744z M48.104,34.344
			c1.62,0.521,3.952,0.656,5.7,0.676c-0.146,0.419-0.136,0.876,0.028,1.288c0.4,0.624,1.032,0.576,1.536,0.1l-2.28,8.872
			l-0.056-0.048c-1.064-0.776-2.196,0.572-1.944,1.648l-0.092-0.024c-1.817-0.54-3.543-1.349-5.12-2.4
			c-1.388-0.884-3.304-2.244-5.332-3.688l-0.696-0.496c1.232,0.14,2.572-0.564,3.284-2.872c0.66-2.136,0.06-4.528-0.852-6.208
			c1.743,1.371,3.706,2.436,5.804,3.152H48.104z M33.552,24.432c2,1.088,3.68,2.552,5.468,4.108c0.172,0.144,0.34,0.292,0.508,0.44
			c-1.736,0.056-3.224,1.258-3.644,2.944c-0.4,1.784-0.536,4.208,0.8,6.156c-1.312-0.88-2.484-1.68-3.376-2.172
			c-1.692-0.96-4.368-1.88-5.96-2.4c0.358-0.253,0.445-0.747,0.196-1.108c-0.224-0.4-0.8-0.8-1.232-0.524l-0.056,0.044l-0.22-8.936
			c0.772,1.004,1.84,0.068,1.272-0.988C29.484,22.539,31.583,23.357,33.552,24.432z"/>
	</g>
	<path fill="#FF725E" d="M39.6,31.856l0.204-0.844l0.672,0.164l-0.2,0.8c0.598,0.172,1.128,0.524,1.52,1.008L41.2,33.832
		c-0.302-0.388-0.707-0.683-1.168-0.852l-0.308,1.256c0.696,0.4,1.456,0.864,1.2,1.94c-0.196,0.8-0.88,1.356-1.972,1.232l-0.2,0.836
		L38.08,38.08l0.2-0.8c-0.479-0.153-0.909-0.429-1.248-0.8l0.568-0.852c0.261,0.278,0.579,0.496,0.932,0.64l0.312-1.28
		c-0.696-0.376-1.448-0.852-1.2-1.912C37.832,32.292,38.504,31.74,39.6,31.856z M38.748,33.248
		c-0.064,0.264,0.096,0.452,0.356,0.636l0.252-1.036c-0.277-0.044-0.543,0.128-0.616,0.4H38.748L38.748,33.248z M39.46,35.34
		L39.2,36.4c0.29,0.035,0.561-0.152,0.632-0.436c0.052-0.252-0.112-0.444-0.38-0.624H39.46z"/>
	<path fill="#FF725E" d="M114.244,180.896c-2.598-0.209-5.111-1.021-7.34-2.373c-2.928-1.803-10.75-7.875-13.132-9.225
		c-2.678-1.497-5.568-2.574-8.572-3.199l-0.248-14.188c2.629,0.354,5.21,1.01,7.692,1.946c3.872,1.518,9.728,8.382,15.1,10.197
		c3.477,1.172,10.328,0.691,10.328,0.691L114.244,180.896z"/>
	<g opacity="0.2">
		<path fill="#FFFFFF" d="M85.872,165.523l0.256,0.072c0.048,0,4.712,1.353,7.12,2.721c1.692,0.959,4.468,2.932,7.152,4.84
			c2.036,1.447,3.959,2.8,5.364,3.707c4.48,2.856,7.284,2.801,7.4,2.801h0.271L116.948,166l-0.492,0.027
			c-0.052,0-5.128,0.285-7.86-0.596c-3.632-1.168-6.264-3.451-8.8-5.664c-1.82-1.576-3.54-3.067-5.6-4.191
			c-1.836-1.002-3.78-1.789-5.796-2.348c-0.801-0.232-1.618-0.406-2.444-0.521l-0.4-0.048L85.872,165.523z M108.376,166.124
			c1.624,0.521,3.952,0.655,5.704,0.676c-0.146,0.419-0.137,0.876,0.027,1.288c0.399,0.624,1.033,0.576,1.537,0.1l-2.285,8.873
			l-0.055-0.049c-1.062-0.775-2.193,0.572-1.941,1.648l-0.092-0.024c-1.816-0.532-3.543-1.335-5.119-2.38
			c-1.389-0.884-3.305-2.244-5.332-3.688l-0.7-0.496c1.235,0.14,2.571-0.564,3.284-2.872c0.66-2.136,0.063-4.528-0.854-6.208
			C104.303,164.357,106.271,165.416,108.376,166.124z M93.844,156.212c2,1.084,3.68,2.552,5.472,4.104
			c0.168,0.146,0.336,0.295,0.508,0.438c-1.738,0.06-3.226,1.263-3.648,2.948c-0.4,1.783-0.536,4.208,0.8,6.15
			c-1.296-0.892-2.472-1.664-3.36-2.168c-1.696-0.959-4.368-1.879-5.964-2.398c0.368-0.245,0.467-0.742,0.222-1.109
			c-0.007-0.011-0.014-0.021-0.021-0.029c-0.224-0.4-0.8-0.801-1.236-0.521l-0.056,0.044l-0.216-8.938
			c0.772,1.008,1.836,0.072,1.268-0.984C89.786,154.299,91.881,155.127,93.844,156.212z"/>
	</g>
	<path fill="#FF725E" d="M99.884,163.632l0.208-0.84l0.668,0.164l-0.199,0.819c0.601,0.172,1.133,0.522,1.523,1.009l-0.592,0.815
		c-0.303-0.39-0.709-0.685-1.172-0.853L100,166c0.695,0.4,1.46,0.864,1.2,1.939c-0.192,0.801-0.876,1.355-1.968,1.231l-0.204,0.836
		l-0.668-0.164l0.2-0.8c-0.48-0.15-0.912-0.428-1.252-0.8l0.564-0.841c0.26,0.277,0.576,0.496,0.928,0.641l0.312-1.279
		c-0.696-0.375-1.444-0.853-1.2-1.912C98.124,164.072,98.8,163.52,99.884,163.632z M99.032,165.027
		c-0.064,0.265,0.096,0.453,0.356,0.637l0.256-1.036C99.368,164.588,99.106,164.76,99.032,165.027z M99.744,167.12l-0.26,1.067
		c0.29,0.033,0.56-0.152,0.632-0.437C100.18,167.488,100,167.296,99.744,167.12z"/>
	<path fill="#FF725E" d="M85.452,64.984c-2.556,0.064-7.252-0.036-11.692-2.072c-5.5-2.524-7.88-6.144-7.88-6.144l-1.2,13.476
		c3.2,7.544,15.916,8.064,21.844,8.204C84.956,71.92,84.548,68.852,85.452,64.984z"/>
	<g opacity="0.2">
		
			<ellipse transform="matrix(-0.3763 0.9265 -0.9265 -0.3763 174.8412 25.3728)" fill="#FFFFFF" cx="78.88" cy="71.54" rx="4.672" ry="4.92"/>
	</g>
	<path fill="#FF725E" d="M78.26,69.14v-0.728h0.58v0.712c0.524,0.014,1.031,0.188,1.452,0.5l-0.308,0.8
		c-0.327-0.254-0.719-0.41-1.132-0.448v1.084c0.644,0.168,1.368,0.4,1.38,1.332c0,0.688-0.432,1.284-1.344,1.416v0.72h-0.58V73.82
		c-0.428-0.026-0.842-0.164-1.2-0.4l0.28-0.8c0.271,0.171,0.575,0.281,0.892,0.324V71.84c-0.644-0.16-1.356-0.4-1.368-1.312
		C76.92,69.868,77.352,69.276,78.26,69.14z M77.86,70.456c0,0.228,0.172,0.348,0.424,0.444V70C78,70.076,77.86,70.248,77.86,70.456z
		 M78.88,72v0.92c0.242-0.032,0.422-0.24,0.42-0.484C79.312,72.22,79.136,72.096,78.88,72z"/>
	<g opacity="0.2">
		<path fill="#FFFFFF" d="M86.172,76.924c-2.96,0.1-5.924-0.076-8.852-0.524c-4.668-0.624-7.548-2.208-9.144-3.428
			c-0.416-0.316-0.81-0.66-1.18-1.028c0.373-1.176-0.022-2.46-0.992-3.224l0.56-6.972c0.292,0.152,0.76,0.212,1.276-0.452
			c3.2,2.956,8.076,4.204,11,4.704c2.1,0.284,4.217,0.417,6.336,0.4l0.124-0.708c-2.111,0.027-4.221-0.093-6.316-0.36
			c-3.392-0.584-9.492-2.188-12.232-6.368l-0.528-0.8L65.22,70.66l0.044,0.084c0.104,0.208,2.716,5.052,12,6.292
			c2.983,0.456,6.003,0.638,9.02,0.544L86.172,76.924z"/>
	</g>
</g>
</svg>
