<?xml version="1.0" encoding="utf-8"?>
<!-- Generator: Adobe Illustrator 16.0.0, SVG Export Plug-In . SVG Version: 6.00 Build 0)  -->
<!DOCTYPE svg PUBLIC "-//W3C//DTD SVG 1.1//EN" "http://www.w3.org/Graphics/SVG/1.1/DTD/svg11.dtd">
<svg version="1.1" id="Calque_1" xmlns="http://www.w3.org/2000/svg" xmlns:xlink="http://www.w3.org/1999/xlink" x="0px" y="0px"
	 width="200px" height="200px" viewBox="0 0 200 200" enable-background="new 0 0 200 200" xml:space="preserve">
<g id="freepik--background-simple--inject-190">
	<path fill="#92E3A9" d="M138.948,18.744c-2.864,1.92-5.696,3.892-8.992,4.8c-10.356,2.88-20.972-4.324-30.268-7.944
		C72.156,4.82,40.204,19.028,24.704,43.2C12.8,61.72,32.892,80.116,23.852,99.368c-7.796,16.608-9.828,41.353,10.172,56.944
		s33.2,17.287,55.928,6.799c22.728-10.487,40,2.037,61.692,5.765c21.691,3.728,39.655-10.168,43.047-27.456
		c3.533-18.031-10.26-34.052-10.056-51.948c0.104-9.268,5.12-17.832,7.284-26.728c2.352-9.692,3.04-20.436-2.309-29.304
		c-9.315-15.472-29.756-26.792-46.967-17.04C141.38,17.12,140.16,17.928,138.948,18.744z"/>
	<path opacity="0.7" fill="#FFFFFF" enable-background="new    " d="M138.948,18.744c-2.864,1.92-5.696,3.892-8.992,4.8
		c-10.356,2.88-20.972-4.324-30.268-7.944C72.156,4.82,40.204,19.028,24.704,43.2C12.8,61.72,32.892,80.116,23.852,99.368
		c-7.796,16.608-9.828,41.353,10.172,56.944s33.2,17.287,55.928,6.799c22.728-10.487,40,2.037,61.692,5.765
		c21.691,3.728,39.655-10.168,43.047-27.456c3.533-18.031-10.26-34.052-10.056-51.948c0.104-9.268,5.12-17.832,7.284-26.728
		c2.352-9.692,3.04-20.436-2.309-29.304c-9.315-15.472-29.756-26.792-46.967-17.04C141.38,17.12,140.16,17.928,138.948,18.744z"/>
</g>
<g id="freepik--Clouds--inject-190">
	<path fill="none" stroke="#263238" stroke-miterlimit="10" d="M160.352,41.048c1.204-2.508,3.588-4.242,6.344-4.616
		c4.801-0.768,6.541,2.116,8.08,5c1.541,2.884,1.541,0.568,5.385,0.568s3.656,3.08,4.615,4.424c0.961,1.344,0.4-0.576,3.849,0
		c3.448,0.576,3.076,3.08,3.844,3.464c0.769,0.384,1.54-0.772,2.5-0.4c0.96,0.372,1.54,1.536,1.54,1.536h-56.16
		c0,0,0.772-4.8,3.656-6.152c2.885-1.352,3.844,1.92,5.768,0.192s1.349-3.656,3.656-4.232
		C155.736,40.256,158.62,42.588,160.352,41.048z"/>
	<path fill="none" stroke="#263238" stroke-miterlimit="10" d="M102.256,12.616c0.646-1.345,1.923-2.275,3.4-2.476
		c2.576-0.4,3.504,1.136,4.328,2.68c0.824,1.544,0.828,0.312,2.888,0.312s1.96,1.648,2.472,2.368s0.208-0.308,2.064,0
		c1.855,0.308,1.648,1.652,2.06,1.856c0.412,0.204,0.824-0.4,1.341-0.204c0.354,0.181,0.643,0.469,0.823,0.824H91.536
		c0,0,0.4-2.576,1.956-3.3c1.556-0.724,2.064,1.032,3.092,0.104c1.028-0.928,0.724-1.96,1.96-2.268
		C99.78,12.204,101.328,13.44,102.256,12.616z"/>
	<path fill="none" stroke="#263238" stroke-miterlimit="10" d="M100.604,106.48c0.645-1.346,1.92-2.277,3.396-2.48
		c2.576-0.4,3.504,1.132,4.332,2.68c0.828,1.549,0.824,0.309,2.884,0.309s1.96,1.652,2.476,2.371c0.517,0.721,0.205-0.308,2.061,0
		c1.855,0.309,1.648,1.648,2.061,1.856s0.828-0.399,1.34-0.208c0.363,0.182,0.66,0.473,0.848,0.832H89.884
		c0,0,0.4-2.576,1.956-3.296c1.556-0.72,2.064,1.028,3.092,0.104c1.028-0.924,0.724-1.961,1.96-2.269
		C98.128,106.072,99.676,107.309,100.604,106.48z"/>
</g>
<g id="freepik--Sun--inject-190">
	<circle fill="none" stroke="#263238" stroke-miterlimit="10" cx="150.091" cy="19.885" r="10.416"/>
	<line fill="none" stroke="#263238" stroke-miterlimit="10" x1="149.788" y1="3.636" x2="149.788" y2="7.316"/>
	<line fill="none" stroke="#263238" stroke-miterlimit="10" x1="149.788" y1="33.052" x2="149.788" y2="36.728"/>
	<line fill="none" stroke="#263238" stroke-miterlimit="10" x1="166.332" y1="20.184" x2="162.656" y2="20.184"/>
	<line fill="none" stroke="#263238" stroke-miterlimit="10" x1="136.916" y1="20.184" x2="133.24" y2="20.184"/>
	<line fill="none" stroke="#263238" stroke-miterlimit="10" x1="138.088" y1="8.484" x2="140.688" y2="11.084"/>
	<line fill="none" stroke="#263238" stroke-miterlimit="10" x1="158.884" y1="29.28" x2="161.484" y2="31.88"/>
	<line fill="none" stroke="#263238" stroke-miterlimit="10" x1="161.484" y1="8.484" x2="158.884" y2="11.084"/>
	<line fill="none" stroke="#263238" stroke-miterlimit="10" x1="140.688" y1="29.28" x2="138.088" y2="31.88"/>
	<line fill="none" stroke="#263238" stroke-miterlimit="10" x1="166.332" y1="20.184" x2="162.656" y2="20.184"/>
	<line fill="none" stroke="#263238" stroke-miterlimit="10" x1="136.916" y1="20.184" x2="133.24" y2="20.184"/>
</g>
<g id="voile">
	<polyline fill="#FFFFFF" stroke="#263238" stroke-miterlimit="10" points="9.172,124.752 41.644,119.248 20.732,3.668 	"/>
	<path fill="#C9C9C9" stroke="#263238" stroke-miterlimit="10" d="M39.648,116.988c0,0-8.272,0.976-25.78-13.86"/>
	<path fill="#C9C9C9" stroke="#263238" stroke-miterlimit="10" d="M36.728,112.611c0,0-6.8-1.911-10.216-9.971"/>
	<path fill="#FFFFFF" stroke="#263238" stroke-miterlimit="10" d="M77.708,11.008c23.856,37.956,80.464,67.448,80.464,67.448
		c-3.256-1.084-4.771,0.868-4.771,0.868c-4.557-1.516-8.893,2.172-8.893,2.172c-3.904-1.736-8.023,1.516-8.023,1.516
		c-2.792-1.309-6.089-0.886-8.461,1.084c-4.336-1.084-8.023,2.168-8.023,2.168c-2.82-1.732-8.764,1.476-8.764,1.476
		c-5.148-1.748-10.297,2.204-10.297,2.204c-6.191-1.384-11.52,1.96-11.52,1.96c-4.556-1.736-9.976,2.168-9.976,2.168
		c-4.988-2.6-11.06,2.168-11.06,2.168c-7.6-1.732-11.712,2.604-11.712,2.604c-6.94-1.736-13.66,3.004-13.66,3.004L26.96,22.068"/>
	<path fill="#C9C9C9" stroke="#263238" stroke-miterlimit="10" d="M44.756,97.532c0,0,10.212-14.104,11.2-30.888"/>
	<path fill="#C9C9C9" stroke="#263238" stroke-miterlimit="10" d="M44.996,90.964c0,0,5.108-18,3.408-40.128"/>
	<polyline fill="#C9C9C9" stroke="#263238" stroke-miterlimit="10" points="6.42,125.3 41.644,119.248 42.468,123.924 8.44,129.716 
			"/>
	<path fill="#C9C9C9" stroke="#263238" stroke-miterlimit="10" d="M43.012,101.848l117.431-23.771
		c0.809-0.164,1.612,0.301,1.873,1.084l0,0c0.285,0.853-0.175,1.775-1.027,2.061c-0.057,0.019-0.115,0.035-0.173,0.047L44.656,107.4
		L43.012,101.848z"/>
	<polyline fill="#C9C9C9" stroke="#263238" stroke-miterlimit="10" points="21.408,6.572 44.864,136.393 50.62,137.008 
		25.784,5.596 	"/>
</g>
<g id="fille">
	<path fill="#C9C9C9" stroke="#263238" stroke-miterlimit="10" d="M115.572,48.732c0,0,2.939-0.776,1.035,2.16
		c-1.903,2.936-4.363,4.128-9.76,6.824c-5.396,2.696-16.82,5.884-23.647,6.188c-6.828,0.304-12.06,0.32-12.06,0.32
		s9.84-0.716,18.884-5.952s10.712-6.268,14.6-7.936S115.572,48.732,115.572,48.732z"/>
	<path fill="#263238" stroke="#263238" stroke-miterlimit="10" d="M101.288,55.224c0,0,2.864,1.54,2.228,3.92
		c-0.636,2.38-0.399,3.888,0.637,4.524c1.035,0.636,1.664-1.032,6.348,0.236s4.84,4.92,4.124,6.664
		c-0.716,1.744-1.349,3.492,0.08,3.812c1.428,0.32,1.744-0.08,2-0.716c0.256-0.636,1.2,0.716,0.235,2.856
		c-0.963,2.14-3.888,5.556-6.107,2.62c-2.221-2.936-1.348-4.92-3.096-4.76c-1.748,0.16-2.301,4.916-5.473,5.472
		s-5.636-0.712-6.112-2.46c-0.293-1.093-0.505-2.207-0.632-3.332c0,0,3.252-0.8,3.964-4.92c0.712-4.12,0.476-9.44,0.476-9.44
		l0.16-4.604L101.288,55.224z"/>
	<path fill="#FFFFFF" stroke="#263238" stroke-miterlimit="10" d="M101.288,55.224c0,0,0.876,2.636,0.548,4.284
		c-0.328,1.648-0.988,2.856-0.439,4.4c0.547,1.544,0.111,3.628-0.988,5.716c-1.1,2.088-1.868,4.4-3.2,5.276s-2.2,1.2-3.736,1.2
		c-1.536,0-4.176-0.768-5.168-2.856c-0.992-2.088,0.22-3.408-1.096-5.936c-0.738-1.362-1.328-2.8-1.76-4.288
		C85.448,63.02,96.34,56.1,101.288,55.224z"/>
	<path fill="none" stroke="#263238" stroke-miterlimit="10" d="M99.308,58.52c0,0-1.1,1.32-0.88,2.528"/>
	<path fill="none" stroke="#263238" stroke-miterlimit="10" d="M99.312,64.54c0,0,1.032,1.348,0.236,2
		c-0.796,0.652-2.22,0.632-2.22,0.632"/>
	<path fill="none" stroke="#263238" stroke-miterlimit="10" d="M97.564,69.3c0,0-3.092,0.636-4.76-1.112"/>
	<path fill="#263238" d="M94.868,61.804c0,0.632-0.248,1.148-0.556,1.148s-0.556-0.516-0.556-1.148c0-0.632,0.248-1.152,0.556-1.152
		S94.868,61.168,94.868,61.804z"/>
	<path fill="#263238" d="M100.344,61.364c0,0.636-0.252,1.152-0.556,1.152c-0.304,0-0.556-0.516-0.556-1.152
		c0-0.636,0.248-1.148,0.556-1.148S100.344,60.732,100.344,61.364z"/>
	<path fill="none" stroke="#263238" stroke-miterlimit="10" d="M95.66,58.984c0,0-1.6-0.316-3.092,1.6"/>
	<path fill="none" stroke="#263238" stroke-miterlimit="10" d="M99.788,57.952c0,0,1.876,0.096,2.048,1.556"/>
	<path fill="#FFFFFF" stroke="#263238" stroke-miterlimit="10" d="M101.393,84.252l16.371,6.364c0,0,6.28-5.432,10.521-8.656
		c3.376-2.658,6.399-5.736,8.995-9.16c1.101-1.528,3.732-6.364,4.324-8.232c0.592-1.868,1.444-3.308,3.48-5.428
		c2.036-2.12,3.057-2.292,2.8-1.444c-0.256,0.848-1.444,2.304-1.884,2.972s-0.932,2.712-0.932,2.712s1.783-1.864,2.8-3.052
		c1.016-1.188,2.376-2.12,3.392-2.376c1.016-0.256,0.936,0.764,0.428,1.2s-2.291,1.696-2.631,2.036
		c-0.341,0.34-1.529,3.648-1.529,3.648s2.973-2.46,4.244-2.884c1.272-0.424,3.309-1.2,2.801-0.256
		c-0.508,0.944-2.208,1.444-2.885,1.952c-0.676,0.508-2.291,2.628-2.291,2.628s2.119-0.76,2.799-0.932
		c0.681-0.172,2.377-0.764,1.865,0.172c-0.513,0.936-1.601,1.272-2.373,1.44c-0.771,0.168-3.563,1.868-4,2.46
		c-0.436,0.592-0.764,2.292-2.547,2.8c-1.009,0.282-2,0.623-2.969,1.02c0,0-11.283,17.56-13.828,20.276
		c-2.544,2.716-6.96,6.8-8.4,7.04c-1.439,0.24-8.991-1.2-13.403-1.864s-6.112-1.02-6.112-1.02s-3.476-4.836-4.836-9.672
		C94.232,83.16,101.393,84.252,101.393,84.252z"/>
	<path fill="none" stroke="#263238" stroke-miterlimit="10" d="M142.2,66.86c1.489-0.594,2.781-1.593,3.731-2.884
		c1.528-2.12,2.036-2.12,2.036-0.848s-1.528,2.968-1.952,3.392s0.34,2.8-2.119,3.732c-2.461,0.932-2.969,1.276-2.969,1.276"/>
	<path fill="#92E3A9" d="M79.624,79.54c0,0-4.236,0.108-4.452,7.6c-0.216,7.492,2.064,23.249,2.064,23.684s-3.804,5.648-7.28,12.492
		s-0.76,13.58-0.76,13.58l94.4,9.344c0,0,4.021-7.932,2.172-11.952c-1.848-4.021-9.123-2.824-11.516-5.976
		c-2.393-3.152-0.977-3.148-0.324-9.125c0.652-5.976-2.936-7.168-11.844-5.323c-8.908,1.844-14.664,8.584-24.768,10.864
		c-10.104,2.279-16.185,1.744-18.116,0.871c-1.932-0.871-3.26-1.844-1.524-7.711c1.736-5.869,5.432-9.777,5.76-16.729
		c0.328-6.952-2.283-11.732-2.283-11.732s-4.452-4.672-8.581-7.064C88.444,79.972,83.536,78.888,79.624,79.54z"/>
	<g opacity="0.49">
		<path fill="#FFFFFF" d="M88.248,116.588c-1.3-1.548-2.352-0.496-0.8,0.801c-1.548,1.299-0.496,2.352,0.8,0.799
			c1.3,1.549,2.356,0.496,0.8-0.799C90.604,116.092,89.548,115.04,88.248,116.588z"/>
		<path fill="#FFFFFF" d="M100.512,99.22c-1.552,1.299-0.496,2.356,0.801,0.8c1.299,1.548,2.352,0.492,0.799-0.8
			c1.549-1.3,0.496-2.352-0.799-0.8C100,96.868,98.96,97.92,100.512,99.22z"/>
		<circle fill="#FFFFFF" cx="88.248" cy="131.72" r="0.804"/>
		<path fill="#FFFFFF" d="M92.052,98.4c-1.3-1.548-2.352-0.496-0.8,0.8c-1.548,1.3-0.496,2.356,0.8,0.8
			c1.3,1.548,2.352,0.492,0.8-0.8C94.4,97.92,93.352,96.868,92.052,98.4z"/>
		<path fill="#FFFFFF" d="M92.052,109.936c-1.3-1.547-2.352-0.492-0.8,0.801c-1.548,1.3-0.496,2.352,0.8,0.8
			c1.3,1.548,2.352,0.496,0.8-0.8C94.4,109.443,93.352,108.4,92.052,109.936z"/>
		<path fill="#FFFFFF" d="M92.052,125.688c-1.3-1.547-2.352-0.496-0.8,0.801c-1.548,1.3-0.496,2.355,0.8,0.8
			c1.3,1.548,2.352,0.491,0.8-0.8C94.4,125.2,93.352,124.141,92.052,125.688z"/>
		<circle fill="#FFFFFF" cx="81.856" cy="125.72" r="0.804"/>
		<path fill="#FFFFFF" d="M81.048,110.744c-1.548,1.3-0.492,2.352,0.8,0.8c1.3,1.548,2.352,0.496,0.8-0.8
			c1.548-1.301,0.496-2.355-0.8-0.801C80.556,108.4,79.5,109.443,81.048,110.744z"/>
		<path fill="#FFFFFF" d="M86.34,94.188c1.3,1.548,2.352,0.492,0.8-0.8c1.548-1.3,0.496-2.352-0.8-0.8
			c-1.3-1.548-2.356-0.496-0.8,0.8C84,94.68,85.04,95.736,86.34,94.188z"/>
		<circle fill="#FFFFFF" cx="87.444" cy="104.712" r="0.804"/>
		<path fill="#FFFFFF" d="M96.8,118.195c0.176,0.219,0.383,0.409,0.616,0.564c0.076-0.279,0.156-0.568,0.244-0.871
			c0.036-0.117,0.076-0.229,0.112-0.345c-0.052-0.048-0.104-0.101-0.168-0.151c0.113-0.092,0.218-0.193,0.316-0.301
			c0.125-0.376,0.259-0.744,0.4-1.104c-0.188-0.313-0.8-0.236-1.516,0.6c-1.3-1.548-2.352-0.496-0.8,0.801
			C94.444,118.691,95.496,119.744,96.8,118.195z"/>
		<path fill="#FFFFFF" d="M111.172,125.864c-0.888,0.122-1.729,0.22-2.523,0.292c0.104,0.121,0.219,0.234,0.344,0.336
			c-1.549,1.3-0.496,2.355,0.8,0.8c1.3,1.548,2.356,0.492,0.8-0.8C110.817,126.314,111.014,126.103,111.172,125.864z"/>
		<circle fill="#FFFFFF" cx="114.54" cy="131.172" r="0.804"/>
		<circle fill="#FFFFFF" cx="72.592" cy="125.072" r="0.804"/>
		<path fill="#FFFFFF" d="M77.14,130.561c-1.3-1.549-2.352-0.496-0.8,0.799c-1.548,1.301-0.496,2.356,0.8,0.801
			c1.3,1.548,2.356,0.492,0.8-0.801C79.496,130.064,78.44,129.012,77.14,130.561z"/>
		<path fill="#FFFFFF" d="M76.336,117.393c-1.548,1.299-0.496,2.352,0.8,0.799c1.3,1.549,2.356,0.496,0.8-0.799
			c1.548-1.301,0.492-2.353-0.8-0.801C75.84,115.04,74.8,116.092,76.336,117.393z"/>
		<path fill="#FFFFFF" d="M144.48,114.775c-1.549,1.301-0.492,2.356,0.799,0.801c1.301,1.548,2.353,0.492,0.801-0.801
			c1.548-1.295,0.496-2.352-0.801-0.799c-0.18-0.223-0.393-0.415-0.631-0.572l-0.94,0.156
			C143.691,113.852,143.908,114.296,144.48,114.775z"/>
		<path fill="#FFFFFF" d="M100.512,110.744c-0.872,0.732-0.92,1.384-0.563,1.54c0.4-0.841,0.8-1.681,1.2-2.532
			C99.928,108.488,99.032,109.5,100.512,110.744z"/>
		<path fill="#FFFFFF" d="M96.8,105.52c1.3,1.549,2.352,0.492,0.8-0.799c1.548-1.301,0.496-2.353-0.8-0.801
			c-1.3-1.548-2.352-0.496-0.8,0.801C94.444,106,95.496,107.068,96.8,105.52z"/>
		<path fill="#FFFFFF" d="M96.8,130.368c-1.3-1.548-2.352-0.496-0.8,0.8c-1.548,1.3-0.496,2.352,0.8,0.8
			c1.3,1.548,2.352,0.496,0.8-0.8C99.148,129.872,98.096,128.82,96.8,130.368z"/>
		<path fill="#FFFFFF" d="M105.2,131.721c-1.548,1.299-0.492,2.355,0.8,0.799c1.3,1.549,2.352,0.492,0.8-0.799
			c1.548-1.301,0.496-2.353-0.8-0.801C104.695,129.368,103.641,130.42,105.2,131.721z"/>
		<path fill="#FFFFFF" d="M164.664,132.855c-0.053-0.047-0.107-0.092-0.164-0.135L164.664,132.855z"/>
		<circle fill="#FFFFFF" cx="123.74" cy="131.72" r="0.804"/>
		<path fill="#FFFFFF" d="M153.628,136.756c-1.296-1.548-2.353-0.492-0.8,0.801c-1.549,1.299-0.492,2.355,0.8,0.799
			c1.3,1.549,2.356,0.492,0.8-0.799C156,136.264,154.928,135.2,153.628,136.756z"/>
		<path fill="#FFFFFF" d="M153.712,115.872c-0.125-0.385-0.312-0.747-0.552-1.072C151.752,116,152.557,116.973,153.712,115.872z"/>
		<path fill="#FFFFFF" d="M157.816,130.352c-0.269-0.08-0.532-0.168-0.801-0.256c-0.309,0.162-0.58,0.385-0.8,0.656
			c-1.3-1.548-2.353-0.492-0.8,0.8c-1.548,1.3-0.496,2.353,0.8,0.8c1.3,1.549,2.353,0.496,0.8-0.8
			C157.6,131.084,157.832,130.645,157.816,130.352z"/>
		<path fill="#FFFFFF" d="M120.355,127.3c1.301,1.548,2.353,0.492,0.801-0.8c1.548-1.3,0.496-2.352-0.801-0.8
			c-1.299-1.548-2.355-0.496-0.799,0.8C118,127.792,119.057,128.848,120.355,127.3z"/>
		<path fill="#FFFFFF" d="M153.076,114.684c-0.109-0.136-0.23-0.263-0.36-0.379C152.825,114.44,152.945,114.568,153.076,114.684z"/>
		<circle fill="#FFFFFF" cx="150.032" cy="120.62" r="0.804"/>
		<path fill="#FFFFFF" d="M161.54,136.756c-1.3-1.548-2.356-0.492-0.8,0.801c-1.549,1.299-0.492,2.355,0.8,0.799
			c1.3,1.549,2.353,0.492,0.8-0.799C163.893,136.264,162.84,135.2,161.54,136.756z"/>
		<path fill="#FFFFFF" d="M164.092,132.432c-0.34-0.215-0.697-0.402-1.068-0.56C162,132.992,162.924,133.752,164.092,132.432z"/>
		<path fill="#FFFFFF" d="M145.288,125.688c-1.3-1.547-2.356-0.496-0.8,0.801c-1.549,1.3-0.492,2.355,0.8,0.8
			c1.3,1.548,2.353,0.491,0.8-0.8C147.641,125.2,146.588,124.141,145.288,125.688z"/>
		<circle fill="#FFFFFF" cx="150.032" cy="131.172" r="0.804"/>
		<path fill="#FFFFFF" d="M141.484,130.916c-1.301-1.548-2.353-0.496-0.801,0.8c-1.547,1.3-0.496,2.356,0.801,0.8
			c1.3,1.549,2.355,0.492,0.8-0.8C143.84,130.42,142.8,129.368,141.484,130.916z"/>
		<path fill="#FFFFFF" d="M136.656,116.036c-1.549,1.3-0.496,2.356,0.8,0.8c1.3,1.548,2.356,0.492,0.8-0.8
			c0.633-0.532,0.824-1.021,0.748-1.308c-0.9,0.312-1.771,0.672-2.628,1.063C136.468,115.872,136.557,115.952,136.656,116.036z"/>
		<path fill="#FFFFFF" d="M141.484,119.813c-1.301-1.549-2.353-0.492-0.801,0.799c-1.547,1.301-0.496,2.353,0.801,0.801
			c1.3,1.548,2.355,0.496,0.8-0.801C143.84,119.32,142.8,118.264,141.484,119.813z"/>
		<path fill="#FFFFFF" d="M145.288,135.884c-1.3-1.548-2.356-0.491-0.8,0.8c-1.549,1.301-0.492,2.353,0.8,0.801
			c1.3,1.548,2.353,0.496,0.8-0.801C147.641,135.393,146.588,134.336,145.288,135.884z"/>
		<path fill="#FFFFFF" d="M137.46,125.688c-1.3-1.547-2.353-0.496-0.8,0.801c-1.549,1.3-0.496,2.355,0.8,0.8
			c1.3,1.548,2.356,0.491,0.8-0.8C139.816,125.2,138.76,124.141,137.46,125.688z"/>
		<path fill="#FFFFFF" d="M127.544,125.688c-1.3-1.547-2.356-0.496-0.8,0.801c-1.549,1.3-0.492,2.355,0.8,0.8
			c1.3,1.548,2.353,0.491,0.8-0.8C129.896,125.2,128.844,124.141,127.544,125.688z"/>
		<path fill="#FFFFFF" d="M137.46,135.884c-1.3-1.548-2.353-0.491-0.8,0.8c-1.549,1.301-0.496,2.353,0.8,0.801
			c1.3,1.548,2.356,0.496,0.8-0.801C139.816,135.393,138.76,134.336,137.46,135.884z"/>
		<path fill="#FFFFFF" d="M127.544,135.884c-1.3-1.548-2.356-0.491-0.8,0.8c-1.549,1.301-0.492,2.353,0.8,0.801
			c1.3,1.548,2.353,0.496,0.8-0.801C129.896,135.393,128.844,134.336,127.544,135.884z"/>
		<path fill="#FFFFFF" d="M132.288,130.368c-1.3-1.548-2.356-0.496-0.8,0.8c-1.549,1.3-0.492,2.352,0.8,0.8
			c1.3,1.548,2.353,0.496,0.8-0.8C134.641,129.872,133.6,128.82,132.288,130.368z"/>
		<path fill="#FFFFFF" d="M132.288,120.492c-1.3-1.549-2.356-0.496-0.8,0.8c-1.549,1.3-0.492,2.353,0.8,0.8
			c1.3,1.549,2.353,0.496,0.8-0.8C134.641,120,133.6,118.943,132.288,120.492z"/>
	</g>
	<path fill="none" stroke="#263238" stroke-miterlimit="10" d="M79.624,79.54c0,0-4.236,0.108-4.452,7.6
		c-0.216,7.492,2.064,23.249,2.064,23.684s-3.804,5.648-7.28,12.492s-0.76,13.58-0.76,13.58l94.4,9.344
		c0,0,4.021-7.932,2.172-11.952c-1.848-4.021-9.123-2.824-11.516-5.976c-2.393-3.152-0.977-3.148-0.324-9.125
		c0.652-5.976-2.936-7.168-11.844-5.323c-8.908,1.844-14.664,8.584-24.768,10.864c-10.104,2.279-16.185,1.744-18.116,0.871
		c-1.932-0.871-3.26-1.844-1.524-7.711c1.736-5.869,5.432-9.777,5.76-16.729c0.328-6.952-2.283-11.732-2.283-11.732
		s-4.452-4.672-8.581-7.064C88.444,79.972,83.536,78.888,79.624,79.54z"/>
	<path fill="#FFFFFF" stroke="#263238" stroke-miterlimit="10" d="M81.364,104.42c3.8-1.74,4.56-4.128,4.452-9.128
		c-0.096-4.368-3.928-13.64-4.888-15.9c-0.444,0.032-0.88,0.08-1.304,0.148c0,0-4.236,0.108-4.452,7.6
		c-0.136,4.592,0.668,12.276,1.312,17.644C78.107,105.194,79.82,105.066,81.364,104.42z"/>
	<path fill="#FFFFFF" stroke="#263238" stroke-miterlimit="10" d="M82.628,79.368c0.864,2.476,2.912,8.4,3.84,11.796
		c1.2,4.348,2.5,6.3,7.28,8.8c4.78,2.5,7.928-1.2,8.148-4.452c0.151-2.276-0.756-5.132-1.316-6.648
		c-1.32-1.316-4.776-4.616-8.028-6.5C89.528,80.592,86.127,79.565,82.628,79.368z"/>
	<path fill="#FFFFFF" stroke="#263238" stroke-miterlimit="10" d="M80.268,79.828c0,0-7.576,1-8.956,5.496
		c-1.38,4.496,0.8,18.564,2,25.371c1.2,6.809,1.572,8.537,2.356,9.272c0.784,0.736,10.192,6.093,13.92,7.173
		s15.813,5.699,15.813,5.699s2.479,1.688,4.8,2.076c2.319,0.389,5.88-0.057,5.88-0.057s3.952,1.813,4.283,1.297
		c0.332-0.516-0.299-1.381-0.299-1.381s2.668,1.533,2.563,0.553s-0.907-2.137-3.601-4.885c-2.691-2.748-2.715-1.743-6.06-1.795
		c-3.344-0.053-5.56,0-6.528-0.36c-0.967-0.36-6.251-3.765-10.799-7.2c-4.548-3.436-11.66-7.783-11.66-7.783l-3.436-22.933"/>
	<path fill="#FFFFFF" stroke="#263238" stroke-miterlimit="10" d="M113.225,132.62c0,0,3.295,0,3.779,0.108
		c0.484,0.107,3.04,2.047,3.04,2.047"/>
	<path fill="#FFFFFF" stroke="#263238" stroke-miterlimit="10" d="M115.344,130.771c0,0,2.877,0.66,3.784,1.289
		c0.908,0.627,3.261,2.691,3.261,2.691"/>
	<path fill="#FFFFFF" stroke="#263238" stroke-miterlimit="10" d="M116.88,129.768c1.122,0.383,2.169,0.957,3.097,1.696"/>
	<path fill="#263238" stroke="#263238" stroke-miterlimit="10" d="M85.824,61.2c0,0,4.6,3.172,3.964,5.396
		c-0.636,2.224-1.504,5.792,1.032,6.664c2.536,0.872,6.032-0.24,7.54,2.3c1.508,2.54-0.716,6.904,1.824,7.22
		c2.541,0.316,2.064-3.492,5.396-1.904s3.092,3.808,3.568,4.524c0.476,0.716,1.6,0.316,1.908-0.872
		c0.307-1.188,0.551-0.32,0.711,2.696s-3.492,4.6-5,3.016s-1.268-2.856-2.379-1.032c-1.113,1.824-1.824,4.524-6.349,4.284
		c-4.524-0.24-3.964-1.348-6.028-5.632c-2.064-4.284-2.38,0.872-5.792,0.556c-3.412-0.316-4.364-1.908-5.316-5.556
		c-0.952-3.648-0.872-1.508-5.396-1.348c-4.524,0.16-9.68-4.284-7.6-8.728c2.08-4.444,3.488-4.444,3.888-6.428
		s0.236-2.54,0.236-2.54S80.984,65.096,85.824,61.2z"/>
	<path fill="#FFFFFF" stroke="#263238" stroke-miterlimit="10" d="M62.488,63.128c0,0,9.892,4.4,18.136,1.868
		c8.244-2.532,21.101-10,27.256-13.296c6.156-3.296,7.692-2.968,7.692-2.968c-3.809,0.183-7.624,0.147-11.428-0.108
		c-5.165-0.44-6.484-0.44-6.484-0.44s-0.988-3.3-1.648-4.948c-0.66-1.648-6.044-3.844-10.772-3.076
		c-4.728,0.768-10.332,6.372-10.332,7.912c0,1.54,0.44,5.824,0.22,7.6C74.908,57.448,65.348,62.468,62.488,63.128z"/>
	<path fill="#92E3A9" stroke="#263238" stroke-miterlimit="10" d="M97.66,48.184c0,0-0.532-2.12-1.176-3.856
		c-3.492,0.024-13.436,0.748-21.404,7.6c0.12,1.419,0.136,2.846,0.048,4.268C75.128,56.196,84.8,48.512,97.66,48.184z"/>
</g>
<g id="bateau">
	<path fill="#263238" stroke="#263238" stroke-miterlimit="10" d="M183.448,145.848l-2.304,4.641l-0.744,1.535l-0.801,1.621
		l-1.916,3.859l-9.199,18.572c0,0-8.844,1.848-22.209-0.208c-13.363-2.056-19.327-8-32.899-8c-13.572,0-16.284,4.932-28.416,5.532
		c-5.716,0.291-9.52-1.58-14.716-3.349c-12.628-4.292-24.108-1.844-36.896-0.352c-10.332,1.2-27.836-1.601-33.256-2.548V127.12
		L183.448,145.848z"/>
	<path fill="#92E3A9" d="M0.092,134.504v4.032C29.6,142,118,152.208,177.66,157.504l1.916-3.859
		C119.691,148.352,29.088,137.9,0.092,134.504z M0.092,131.188v1.601c28.12,3.292,119.74,13.876,180.288,19.224l0.765-1.535
		C120.54,145.148,28.08,134.464,0.092,131.2V131.188z"/>
	<path fill="#FFFFFF" stroke="#263238" stroke-miterlimit="10" d="M0.368,122.548L185.2,143.8c0.978,0.111,1.698,0.966,1.644,1.948
		l0,0c-0.059,1.023-0.935,1.806-1.958,1.748c-0.031-0.002-0.063-0.005-0.094-0.008L0.092,127.12"/>
</g>
<g id="vagues">
	<path fill="none" stroke="#263238" stroke-miterlimit="10" d="M56.4,178.58c4.72,0.828,9.112,1.813,13.836,1.729"/>
	<path fill="none" stroke="#263238" stroke-miterlimit="10" d="M24.1,180.172c2.8,0.049,6.4-0.304,11.004-1.408
		c7.684-1.848,13.8-1.396,19.36-0.512"/>
	<path fill="none" stroke="#263238" stroke-miterlimit="10" d="M15.408,177.796c0,0,1.696,1.772,6.588,2.256"/>
	<path fill="none" stroke="#263238" stroke-miterlimit="10" d="M137.568,181.2c12.703-1.808,21.031,2.56,30.768,2.399"/>
	<path fill="none" stroke="#263238" stroke-miterlimit="10" d="M113.496,181.08c0,0,4.443,4.636,19.695,0.964
		c0.641-0.151,1.269-0.292,1.889-0.399"/>
	<path fill="none" stroke="#263238" stroke-miterlimit="10" d="M180.064,189.68c1.736,0.322,3.498,0.481,5.264,0.477"/>
	<path fill="none" stroke="#263238" stroke-miterlimit="10" d="M151.152,188.592c0,0,2.768,2.889,12.271,0.604
		c5.704-1.371,10.02-0.707,14.02,0"/>
	<path fill="none" stroke="#263238" stroke-miterlimit="10" d="M168.439,176.076c0,0,2.16-0.801,14.252-3.364
		c10.32-2.2,14.553,0.509,16.072,2.54"/>
	<path fill="none" stroke="#263238" stroke-miterlimit="10" d="M93.648,187.636c1.461,0.155,2.931,0.224,4.4,0.204"/>
	<path fill="none" stroke="#263238" stroke-miterlimit="10" d="M43.2,185.328c0,0,4.44,4.636,19.696,0.964
		c11.428-2.748,19.388-0.399,27.2,0.868"/>
</g>
</svg>
